<?xml version="1.0" encoding="UTF-8"?>
<svg id="Layer_1" data-name="Layer 1" xmlns="http://www.w3.org/2000/svg" xmlns:xlink="http://www.w3.org/1999/xlink" viewBox="0 0 1000 1000" shape-rendering="geometricPrecision">
  <defs>
    <style>
      .cls-1 {
        fill: #d4b23c;
      }

      .cls-2 {
        fill: #211a57;
      }

      .cls-3 {
        fill: url(#linear-gradient);
      }
    </style>
    <linearGradient id="linear-gradient" x1="236.59" y1="481.64" x2="965.73" y2="481.64" gradientUnits="userSpaceOnUse">
      <stop offset="0" stop-color="#d4b23c"/>
      <stop offset="1" stop-color="#be9c62"/>
    </linearGradient>
  </defs>
  <g>
    <path class="cls-2" d="M257.35,703.19c-50.67,0-97.46-16.45-139.07-48.89-45.89-35.78-74.07-87.16-81.5-148.6-7.05-58.35,10.7-117.36,50-166.16,28.03-34.81,85.58-72.79,141.33-78.03,9.89-.93,19.56-1.4,28.75-1.4,52.93,0,97.26,15.32,139.53,48.21,23.92,18.61,44.69,42.06,64.79,64.75l3.87,4.36c4.99,5.63,17.27,23.31,19.74,26.88l-91.3,106.74c-8.93-.02-141.92-.37-188.19-.37-7.8,0-15.94-.06-23.81-.13-8.06-.06-16.4-.13-24.58-.13-11.75,0-21.27.14-29.96.43l-1.25.04.32,1.21c1.16,4.45,2.43,9.25,3.9,14.15,10.61,35.58,37.02,64.68,74.38,81.96,6.76,3.12,13.81,6.03,20.98,8.64,31.14,11.34,64.36,17.33,96.08,17.33,10.83,0,21.62-.69,32.08-2.05,14.14-1.84,28.07-5.46,42.57-11.06,24.94-9.64,48.09-23.9,71.43-39.1-17.38,26.25-45.53,54.03-79.69,78.58-34.28,24.64-68.51,37.85-107.72,41.56-7.59.72-15.22,1.08-22.67,1.08ZM264.19,443.97c10.93,0,22.15.1,34.02.2,11.94.1,24.29.21,36.35.21,15.9,0,28.65-.18,40.11-.58l1.19-.04-.24-1.16c-6.2-29.62-16.86-50.97-34.55-69.21-23.49-24.21-51.8-35.49-89.09-35.49-3.9,0-7.97.13-12.11.38-58.58,5.31-101.89,45.37-113.05,104.54l-.22,1.19,137.59-.04Z"/>
    <path class="cls-1" d="M256.86,261.09c52.69,0,96.83,15.25,138.92,48,23.85,18.56,44.59,41.98,64.66,64.63l3.86,4.35c4.71,5.31,16.01,21.5,19.23,26.16l-90.5,105.8c-12.28-.03-142.13-.36-187.74-.36-7.79,0-15.93-.06-23.8-.13-8.07-.06-16.41-.13-24.59-.13-11.76,0-21.29.14-29.99.43l-2.5.08.63,2.42c1.17,4.47,2.45,9.29,3.91,14.18,10.69,35.85,37.3,65.18,74.92,82.58,6.77,3.13,13.86,6.05,21.05,8.67,31.25,11.38,64.59,17.39,96.42,17.39,10.87,0,21.71-.69,32.21-2.06,14.22-1.85,28.22-5.49,42.8-11.12,23.54-9.1,45.46-22.28,67.45-36.49-17.46,24.93-44.35,51.01-76.65,74.23-34.13,24.53-68.2,37.68-107.23,41.38-7.56.72-15.15,1.08-22.57,1.08-50.44,0-97.03-16.38-138.45-48.68-23.07-17.99-41.71-39.91-55.41-65.14-13.41-24.71-22.06-52.57-25.71-82.79-3.56-29.48-.81-59.09,8.18-88.03,8.63-27.78,22.63-53.82,41.61-77.38,27.9-34.65,85.17-72.45,140.65-77.67,9.86-.93,19.5-1.4,28.66-1.4M125.38,445.01h2.41s136.39-.04,136.39-.04c10.92,0,22.14.1,34.01.2,11.95.1,24.3.21,36.37.21,15.91,0,28.67-.18,40.14-.58l2.38-.08-.49-2.33c-6.24-29.82-16.98-51.32-34.81-69.7-23.69-24.42-52.23-35.8-89.81-35.8-3.92,0-8.02.13-12.17.38h-.03s-.03,0-.03,0c-58.12,5.27-102.84,46.62-113.92,105.35l-.45,2.37M256.86,259.09c-9.39,0-18.99.48-28.84,1.41-54.84,5.16-112.83,42.15-142.02,78.4-37.56,46.64-57.59,105.84-50.21,166.91,7.32,60.54,34.56,112.38,81.87,149.27,40.74,31.77,87.73,49.1,139.68,49.1,7.49,0,15.07-.36,22.76-1.09,42.2-4,76.31-18.82,108.21-41.74,30.06-21.61,62.01-50.42,81.95-81.95.18-.28.36-.57.55-.85-24.3,15.9-48.64,31.32-75.18,41.57-13.45,5.2-27.47,9.07-42.33,11-10.58,1.38-21.26,2.04-31.95,2.04-32.57,0-65.28-6.18-95.74-17.27-7.08-2.58-14.06-5.44-20.9-8.61-34.91-16.15-62.71-44.01-73.84-81.34-1.4-4.69-2.65-9.38-3.89-14.11,9.73-.33,19.78-.43,29.92-.43,16.22,0,32.67.26,48.39.26,48.19,0,188.65.37,188.65.37l92.1-107.67s-14.61-21.25-20.26-27.61c-21.43-24.15-43.26-49.38-68.79-69.23-43.69-34-88.63-48.42-140.15-48.42h0ZM127.8,443.01c10.81-57.29,53.47-98.42,112.13-103.73,4.07-.25,8.09-.38,12.05-.38,33.74,0,63.39,9.43,88.38,35.19,19.28,19.88,28.7,42.04,34.29,68.72-12.75.44-26.3.58-40.08.58-23.72,0-48.14-.41-70.38-.41l-136.39.04h0Z"/>
  </g>
  <path class="cls-3" d="M604.94,423.19h0c16.55-19.52,28.97-34.15,29.25-34.42,44.06-43.56,64.82-47.36,107.05-47.36,169.25,4.5,195.44,239.16,31.31,280.86-103.24,24.3-197.42-74.25-168.43-176.28l-89.75,105.82s24.68,34.79,37.01,53.48c112.17,170.05,410.91,114.8,414.33-119.5,1.21-125.58-100.72-227.65-226.25-226.68-64.74-.1-122.89,28.82-163.56,73.55h0c-104.89,116.82-64.42,71.39-144.12,161.38-33.75,38.1-138.87,145.31-195.18,127.11,99.25,32.08,179.88,18.56,222.28-25.72"/>
</svg>