<?xml version="1.0" encoding="UTF-8"?>
<svg id="Layer_1" data-name="Layer 1" xmlns="http://www.w3.org/2000/svg" viewBox="0 0 1000 1000">
  <defs>
    <style>
      .cls-1 {
        fill: #d4b23c;
      }

      .cls-2 {
        fill: #211a57;
      }
    </style>
  </defs>
  <path class="cls-1" d="M164.77,459.23l-4.58,50.19c-.24,2.34-.36,3.89-.36,4.63,0,1.19.22,2.09.67,2.71.56.86,1.33,1.5,2.29,1.91s2.59.62,4.87.62l-.49,1.65h-23.76l.49-1.65h1.02c1.93,0,3.5-.42,4.72-1.25.86-.56,1.53-1.5,2-2.8.33-.92.64-3.08.93-6.5l.71-7.65h-17.26l-6.14,8.32c-1.39,1.87-2.27,3.21-2.62,4.03-.36.82-.53,1.58-.53,2.29,0,.95.38,1.77,1.16,2.45.77.68,2.05,1.05,3.83,1.11l-.49,1.65h-17.84l.49-1.65c2.2-.09,4.13-.82,5.81-2.2,1.68-1.38,4.17-4.32,7.5-8.83l36.04-49.04h1.56ZM155.96,474.05l-17.49,23.81h15.17l2.31-23.81Z"/>
  <path class="cls-1" d="M216.38,481.74l-7.74,26.52c-1.16,3.95-1.73,6.44-1.73,7.48,0,.53.1.93.29,1.18.19.25.45.38.78.38.5,0,1.06-.23,1.67-.69s2.14-2.29,4.61-5.5l1.34,1.02c-2.34,3.71-4.75,6.44-7.21,8.19-1.63,1.13-3.2,1.69-4.72,1.69-1.16,0-2.06-.33-2.71-.98-.65-.65-.98-1.5-.98-2.54s.19-2.34.58-4c.47-2.19,1.82-6.97,4.05-14.33-5.04,8.28-9.26,13.99-12.66,17.13-3.4,3.15-6.55,4.72-9.46,4.72-1.37,0-2.52-.48-3.47-1.42-.95-.95-1.42-2.15-1.42-3.6,0-2.23.65-5.64,1.96-10.23l3.87-13.75c.95-3.29,1.42-5.34,1.42-6.14,0-.36-.13-.66-.38-.91-.25-.25-.53-.38-.82-.38-.62,0-1.25.22-1.87.67-.62.45-2.03,2.09-4.23,4.94l-1.38-.98c2.23-3.44,4.58-5.98,7.07-7.61,1.9-1.28,3.65-1.91,5.25-1.91,1.1,0,2,.35,2.69,1.04.7.7,1.05,1.6,1.05,2.69,0,1.6-.59,4.46-1.78,8.59l-4.18,14.37c-1.16,3.92-1.73,6.39-1.73,7.43,0,.56.19,1.02.56,1.36.37.34.87.51,1.49.51.98,0,2.25-.49,3.83-1.47,1.57-.98,3.67-3.15,6.3-6.52,2.63-3.37,4.79-6.53,6.5-9.48,1.7-2.95,3.52-7.65,5.45-14.08l.98-3.38h6.76Z"/>
  <path class="cls-1" d="M266.53,483.43l-1.29,4.63h-7.43c.56,1.6.85,3.1.85,4.49,0,3.92-1.66,7.4-4.98,10.46-3.35,3.06-7.95,4.75-13.79,5.07-3.14.95-5.5,2.08-7.07,3.38-.59.47-.89.96-.89,1.47,0,.59.27,1.14.8,1.62s1.88.99,4.05,1.49l8.63,2c4.78,1.13,7.93,2.46,9.48,4,1.51,1.57,2.27,3.38,2.27,5.43,0,2.43-.9,4.66-2.69,6.67-1.8,2.02-4.42,3.6-7.88,4.74-3.46,1.14-7.27,1.71-11.46,1.71-3.68,0-7.03-.44-10.06-1.31-3.03-.88-5.19-2.05-6.5-3.54-1.31-1.48-1.96-3.01-1.96-4.58,0-1.28.42-2.6,1.27-3.98.85-1.38,1.91-2.51,3.18-3.4.8-.56,3.07-1.9,6.81-4-1.37-1.07-2.05-2.24-2.05-3.52,0-1.19.6-2.45,1.8-3.78,1.2-1.34,3.74-2.8,7.63-4.41-3.26-.62-5.85-1.99-7.76-4.09s-2.87-4.45-2.87-7.03c0-4.21,1.85-7.98,5.54-11.3s8.61-4.98,14.75-4.98c2.23,0,4.05.22,5.47.67,1.42.45,2.8,1.14,4.14,2.09h12.01ZM229.78,520.94c-2.4,1.1-4.22,2.51-5.45,4.23s-1.85,3.41-1.85,5.07c0,1.96.89,3.57,2.67,4.85,2.55,1.84,6.29,2.76,11.21,2.76,4.24,0,7.87-.72,10.88-2.16,3.01-1.44,4.52-3.3,4.52-5.58,0-1.16-.56-2.26-1.67-3.29-1.11-1.04-3.27-1.88-6.47-2.54-1.75-.36-6.36-1.47-13.84-3.34ZM251.09,490.42c0-2.37-.66-4.24-1.98-5.61-1.32-1.36-3.05-2.05-5.18-2.05-3.35,0-6.12,1.68-8.3,5.05-2.18,3.37-3.27,6.87-3.27,10.52,0,2.28.7,4.15,2.09,5.61,1.39,1.45,3.08,2.18,5.07,2.18,1.57,0,3.09-.43,4.56-1.29,1.47-.86,2.71-2.05,3.72-3.56s1.81-3.44,2.4-5.78c.59-2.34.89-4.03.89-5.07Z"/>
  <path class="cls-1" d="M284.37,480.68l-5.78,20.07c2.58-4.72,4.78-8.26,6.59-10.63,2.82-3.68,5.56-6.35,8.23-8.01,1.57-.95,3.22-1.42,4.94-1.42,1.48,0,2.71.47,3.69,1.42.98.95,1.47,2.17,1.47,3.65s-.34,3.35-1.02,5.7l-3.16,11.3c4.84-9.05,9.42-15.4,13.75-19.04,2.4-2.02,4.78-3.03,7.12-3.03,1.36,0,2.48.47,3.36,1.4.88.93,1.31,2.38,1.31,4.34,0,1.72-.27,3.54-.8,5.47l-4.89,17.31c-1.07,3.77-1.6,5.86-1.6,6.27s.13.77.4,1.07c.18.21.42.31.71.31s.82-.28,1.56-.85c1.69-1.3,3.28-3.03,4.76-5.16l1.47.93c-.74,1.19-2.05,2.82-3.94,4.89-1.88,2.08-3.49,3.49-4.83,4.23-1.34.74-2.57,1.11-3.69,1.11-1.04,0-1.91-.36-2.6-1.07s-1.05-1.59-1.05-2.63c0-1.42.61-4.29,1.82-8.59l4.05-14.28c.92-3.29,1.41-5.12,1.47-5.47.09-.56.13-1.11.13-1.65,0-.74-.16-1.32-.49-1.74-.36-.41-.76-.62-1.2-.62-1.25,0-2.57.64-3.96,1.91-4.09,3.77-7.92,9.05-11.48,15.84-2.34,4.48-4.54,10.22-6.58,17.22h-6.72l7.61-26.92c.83-2.91,1.25-4.85,1.25-5.83,0-.8-.16-1.39-.49-1.78-.33-.38-.73-.58-1.2-.58-.98,0-2.02.36-3.11,1.07-1.78,1.16-4.07,3.63-6.87,7.43-2.8,3.8-4.98,7.43-6.52,10.9-.74,1.63-2.51,6.87-5.3,15.71h-6.59l8.23-28.83,1.07-3.74c.21-.56.31-.98.31-1.25,0-.65-.3-1.24-.89-1.76-.59-.52-1.35-.78-2.27-.78-.39,0-1.45.18-3.2.53l-.4-1.65,15.35-2.8Z"/>
  <path class="cls-1" d="M341.28,504.17c-.21,1.48-.31,2.71-.31,3.69,0,2.64.93,4.89,2.8,6.74,1.87,1.85,4.14,2.78,6.81,2.78,2.14,0,4.19-.44,6.16-1.31,1.97-.87,4.9-2.81,8.79-5.81l.93,1.29c-7.03,6.97-13.73,10.46-20.11,10.46-4.33,0-7.59-1.36-9.79-4.09s-3.29-5.74-3.29-9.03c0-4.42,1.36-8.94,4.09-13.57s6.15-8.23,10.28-10.79c4.12-2.57,8.37-3.85,12.73-3.85,3.14,0,5.47.64,6.99,1.91s2.27,2.79,2.27,4.54c0,2.46-.98,4.82-2.94,7.07-2.58,2.94-6.38,5.31-11.39,7.12-3.32,1.22-8,2.17-14.02,2.85ZM341.59,501.99c4.39-.5,7.96-1.36,10.72-2.58,3.65-1.63,6.38-3.58,8.21-5.85,1.82-2.27,2.74-4.43,2.74-6.47,0-1.25-.39-2.25-1.18-3.03-.79-.77-1.91-1.16-3.36-1.16-3.03,0-6.24,1.61-9.63,4.83s-5.9,7.97-7.5,14.26Z"/>
  <path class="cls-1" d="M390.99,480.68l-5.92,20.25c5.55-8.28,9.8-13.72,12.75-16.33,2.95-2.61,5.79-3.92,8.52-3.92,1.48,0,2.71.49,3.67,1.47.96.98,1.45,2.25,1.45,3.83,0,1.78-.43,4.15-1.29,7.12l-5.43,18.73c-.62,2.17-.93,3.49-.93,3.96,0,.42.12.76.36,1.05.24.28.49.42.76.42.36,0,.79-.19,1.29-.58,1.57-1.25,3.29-3.14,5.16-5.69l1.38.85c-2.76,3.95-5.37,6.76-7.83,8.45-1.72,1.16-3.26,1.74-4.63,1.74-1.1,0-1.97-.33-2.62-1-.65-.67-.98-1.56-.98-2.69,0-1.42.5-3.87,1.51-7.34l5.16-17.89c.65-2.23.98-3.96.98-5.21,0-.59-.19-1.07-.58-1.45-.39-.37-.86-.56-1.42-.56-.83,0-1.82.36-2.98,1.07-2.2,1.33-4.48,3.54-6.85,6.61s-4.88,6.99-7.52,11.77c-1.39,2.52-2.55,5.28-3.47,8.28l-2.22,7.34h-6.67l8.1-27.85c.95-3.35,1.42-5.37,1.42-6.05s-.26-1.22-.78-1.71c-.52-.49-1.16-.73-1.94-.73-.36,0-.98.06-1.87.18l-1.69.27-.27-1.6,15.4-2.76Z"/>
  <path class="cls-1" d="M440.11,469.64l-3.47,12.1h6.99l-.76,2.8h-6.94l-7.65,26.25c-.83,2.82-1.25,4.64-1.25,5.47,0,.5.12.89.36,1.16.24.27.52.4.85.4.74,0,1.72-.52,2.94-1.56.71-.59,2.3-2.42,4.76-5.47l1.47,1.11c-2.73,3.98-5.31,6.78-7.74,8.41-1.66,1.13-3.34,1.69-5.03,1.69-1.31,0-2.37-.41-3.2-1.22s-1.25-1.86-1.25-3.14c0-1.6.47-4.05,1.42-7.34l7.43-25.76h-6.72l.44-1.73c3.26-.89,5.98-2.22,8.14-3.98,2.16-1.77,4.58-4.83,7.25-9.19h1.96Z"/>
  <path class="cls-1" d="M462.71,480.68l-8.81,31.19c-.59,2.11-.89,3.37-.89,3.78,0,.47.14.86.42,1.16.28.3.62.45,1,.45.44,0,.98-.24,1.6-.71,1.69-1.33,3.4-3.23,5.12-5.69l1.56,1.02c-2.02,3.08-4.39,5.68-7.12,7.79-2.02,1.57-3.95,2.36-5.78,2.36-1.22,0-2.21-.36-2.98-1.09-.77-.73-1.16-1.64-1.16-2.74s.37-2.92,1.11-5.47l5.78-19.93c.95-3.26,1.42-5.31,1.42-6.14,0-.65-.23-1.19-.69-1.6s-1.09-.62-1.89-.62c-.65,0-2,.16-4.05.49v-1.74l15.35-2.49ZM462.13,463.01c1.25,0,2.3.43,3.16,1.29.86.86,1.29,1.91,1.29,3.16s-.44,2.26-1.31,3.14c-.88.88-1.92,1.31-3.14,1.31s-2.26-.44-3.14-1.31c-.88-.87-1.31-1.92-1.31-3.14s.43-2.3,1.29-3.16c.86-.86,1.91-1.29,3.16-1.29Z"/>
  <path class="cls-1" d="M487.19,480.68l-5.92,20.25c5.55-8.28,9.8-13.72,12.75-16.33,2.95-2.61,5.79-3.92,8.52-3.92,1.48,0,2.71.49,3.67,1.47.96.98,1.45,2.25,1.45,3.83,0,1.78-.43,4.15-1.29,7.12l-5.43,18.73c-.62,2.17-.93,3.49-.93,3.96,0,.42.12.76.36,1.05.24.28.49.42.76.42.36,0,.79-.19,1.29-.58,1.57-1.25,3.29-3.14,5.16-5.69l1.38.85c-2.76,3.95-5.37,6.76-7.83,8.45-1.72,1.16-3.26,1.74-4.63,1.74-1.1,0-1.97-.33-2.62-1-.65-.67-.98-1.56-.98-2.69,0-1.42.5-3.87,1.51-7.34l5.16-17.89c.65-2.23.98-3.96.98-5.21,0-.59-.19-1.07-.58-1.45-.39-.37-.86-.56-1.42-.56-.83,0-1.82.36-2.98,1.07-2.2,1.33-4.48,3.54-6.85,6.61-2.37,3.07-4.88,6.99-7.52,11.77-1.39,2.52-2.55,5.28-3.47,8.28l-2.22,7.34h-6.67l8.1-27.85c.95-3.35,1.42-5.37,1.42-6.05s-.26-1.22-.78-1.71c-.52-.49-1.16-.73-1.94-.73-.36,0-.98.06-1.87.18l-1.69.27-.27-1.6,15.4-2.76Z"/>
  <path class="cls-1" d="M560.11,483.43l-1.29,4.63h-7.43c.56,1.6.85,3.1.85,4.49,0,3.92-1.66,7.4-4.98,10.46-3.35,3.06-7.95,4.75-13.79,5.07-3.15.95-5.5,2.08-7.07,3.38-.59.47-.89.96-.89,1.47,0,.59.27,1.14.8,1.62.53.49,1.88.99,4.05,1.49l8.63,2c4.78,1.13,7.93,2.46,9.48,4,1.51,1.57,2.27,3.38,2.27,5.43,0,2.43-.9,4.66-2.69,6.67-1.79,2.02-4.42,3.6-7.88,4.74-3.46,1.14-7.28,1.71-11.46,1.71-3.68,0-7.03-.44-10.06-1.31-3.03-.88-5.19-2.05-6.5-3.54-1.31-1.48-1.96-3.01-1.96-4.58,0-1.28.42-2.6,1.27-3.98.85-1.38,1.91-2.51,3.18-3.4.8-.56,3.07-1.9,6.81-4-1.36-1.07-2.05-2.24-2.05-3.52,0-1.19.6-2.45,1.8-3.78,1.2-1.34,3.74-2.8,7.63-4.41-3.26-.62-5.85-1.99-7.76-4.09s-2.87-4.45-2.87-7.03c0-4.21,1.85-7.98,5.54-11.3,3.69-3.32,8.61-4.98,14.75-4.98,2.22,0,4.05.22,5.47.67,1.42.45,2.8,1.14,4.14,2.09h12.01ZM523.36,520.94c-2.4,1.1-4.22,2.51-5.45,4.23s-1.85,3.41-1.85,5.07c0,1.96.89,3.57,2.67,4.85,2.55,1.84,6.29,2.76,11.21,2.76,4.24,0,7.87-.72,10.88-2.16,3.01-1.44,4.52-3.3,4.52-5.58,0-1.16-.56-2.26-1.67-3.29-1.11-1.04-3.27-1.88-6.47-2.54-1.75-.36-6.36-1.47-13.84-3.34ZM544.67,490.42c0-2.37-.66-4.24-1.98-5.61-1.32-1.36-3.05-2.05-5.18-2.05-3.35,0-6.12,1.68-8.3,5.05-2.18,3.37-3.27,6.87-3.27,10.52,0,2.28.7,4.15,2.09,5.61,1.39,1.45,3.08,2.18,5.07,2.18,1.57,0,3.09-.43,4.56-1.29,1.47-.86,2.71-2.05,3.72-3.56s1.81-3.44,2.4-5.78c.59-2.34.89-4.03.89-5.07Z"/>
  <path class="cls-2" d="M581.61,522.32l4.98-22.38h1.51c-.21,2.17-.31,3.96-.31,5.38,0,4.06,1.3,7.37,3.89,9.92,2.6,2.55,5.98,3.83,10.17,3.83,3.88,0,6.84-1.19,8.85-3.58,2.02-2.39,3.03-5.14,3.03-8.25,0-2.02-.46-3.86-1.38-5.52-1.39-2.46-5.12-6.79-11.17-12.99-2.94-2.97-4.82-5.18-5.65-6.63-1.37-2.4-2.05-4.92-2.05-7.56,0-4.21,1.57-7.82,4.72-10.81,3.14-3,7.18-4.49,12.1-4.49,1.66,0,3.23.16,4.72.49.92.18,2.6.77,5.03,1.78,1.72.68,2.67,1.05,2.85,1.11.42.09.87.13,1.38.13.86,0,1.6-.22,2.23-.67.62-.44,1.35-1.39,2.18-2.85h1.69l-4.63,20.02h-1.51c.12-1.78.18-3.22.18-4.32,0-3.59-1.19-6.53-3.56-8.81-2.37-2.28-5.5-3.43-9.39-3.43-3.09,0-5.59.91-7.52,2.71-1.93,1.81-2.89,3.9-2.89,6.27,0,2.08.62,4.06,1.85,5.94,1.23,1.88,4.06,4.95,8.5,9.21,4.43,4.26,7.3,7.58,8.61,9.97s1.96,4.93,1.96,7.63c0,3.06-.81,6.01-2.42,8.88-1.62,2.86-3.94,5.08-6.96,6.65-3.03,1.57-6.33,2.36-9.92,2.36-1.78,0-3.44-.16-4.98-.49-1.54-.33-4-1.13-7.39-2.4-1.16-.45-2.12-.67-2.89-.67-1.75,0-3.11,1.19-4.09,3.56h-1.69Z"/>
  <path class="cls-2" d="M637.4,504.17c-.21,1.48-.31,2.71-.31,3.69,0,2.64.93,4.89,2.8,6.74,1.87,1.85,4.14,2.78,6.81,2.78,2.14,0,4.19-.44,6.16-1.31,1.97-.87,4.9-2.81,8.79-5.81l.93,1.29c-7.03,6.97-13.73,10.46-20.11,10.46-4.33,0-7.59-1.36-9.79-4.09-2.2-2.73-3.29-5.74-3.29-9.03,0-4.42,1.36-8.94,4.09-13.57,2.73-4.63,6.15-8.23,10.28-10.79,4.12-2.57,8.37-3.85,12.73-3.85,3.14,0,5.47.64,6.99,1.91,1.51,1.28,2.27,2.79,2.27,4.54,0,2.46-.98,4.82-2.94,7.07-2.58,2.94-6.38,5.31-11.39,7.12-3.32,1.22-7.99,2.17-14.02,2.85ZM637.72,501.99c4.39-.5,7.96-1.36,10.72-2.58,3.65-1.63,6.38-3.58,8.21-5.85,1.82-2.27,2.74-4.43,2.74-6.47,0-1.25-.39-2.25-1.18-3.03-.79-.77-1.91-1.16-3.36-1.16-3.03,0-6.24,1.61-9.63,4.83-3.4,3.22-5.9,7.97-7.5,14.26Z"/>
  <path class="cls-2" d="M687.11,480.68l-5.92,20.25c5.55-8.28,9.8-13.72,12.75-16.33,2.95-2.61,5.79-3.92,8.52-3.92,1.48,0,2.71.49,3.67,1.47s1.45,2.25,1.45,3.83c0,1.78-.43,4.15-1.29,7.12l-5.43,18.73c-.62,2.17-.93,3.49-.93,3.96,0,.42.12.76.36,1.05.24.28.49.42.76.42.36,0,.79-.19,1.29-.58,1.57-1.25,3.29-3.14,5.16-5.69l1.38.85c-2.76,3.95-5.37,6.76-7.83,8.45-1.72,1.16-3.26,1.74-4.63,1.74-1.1,0-1.97-.33-2.63-1-.65-.67-.98-1.56-.98-2.69,0-1.42.5-3.87,1.51-7.34l5.16-17.89c.65-2.23.98-3.96.98-5.21,0-.59-.19-1.07-.58-1.45-.39-.37-.86-.56-1.42-.56-.83,0-1.82.36-2.98,1.07-2.19,1.33-4.48,3.54-6.85,6.61-2.37,3.07-4.88,6.99-7.52,11.77-1.39,2.52-2.55,5.28-3.47,8.28l-2.22,7.34h-6.68l8.1-27.85c.95-3.35,1.42-5.37,1.42-6.05s-.26-1.22-.78-1.71c-.52-.49-1.16-.73-1.94-.73-.36,0-.98.06-1.87.18l-1.69.27-.27-1.6,15.4-2.76Z"/>
  <path class="cls-2" d="M736.23,469.64l-3.47,12.1h6.99l-.76,2.8h-6.94l-7.65,26.25c-.83,2.82-1.25,4.64-1.25,5.47,0,.5.12.89.36,1.16.24.27.52.4.85.4.74,0,1.72-.52,2.94-1.56.71-.59,2.3-2.42,4.76-5.47l1.47,1.11c-2.73,3.98-5.31,6.78-7.74,8.41-1.66,1.13-3.34,1.69-5.03,1.69-1.31,0-2.37-.41-3.2-1.22s-1.25-1.86-1.25-3.14c0-1.6.47-4.05,1.42-7.34l7.43-25.76h-6.72l.45-1.73c3.26-.89,5.98-2.22,8.14-3.98s4.58-4.83,7.25-9.19h1.96Z"/>
  <path class="cls-2" d="M758.83,480.68l-8.81,31.19c-.59,2.11-.89,3.37-.89,3.78,0,.47.14.86.42,1.16.28.3.62.45,1,.45.45,0,.98-.24,1.6-.71,1.69-1.33,3.4-3.23,5.12-5.69l1.56,1.02c-2.02,3.08-4.39,5.68-7.12,7.79-2.02,1.57-3.95,2.36-5.78,2.36-1.22,0-2.21-.36-2.98-1.09-.77-.73-1.16-1.64-1.16-2.74s.37-2.92,1.11-5.47l5.78-19.93c.95-3.26,1.42-5.31,1.42-6.14,0-.65-.23-1.19-.69-1.6s-1.09-.62-1.89-.62c-.65,0-2,.16-4.05.49v-1.74l15.35-2.49ZM758.25,463.01c1.25,0,2.3.43,3.16,1.29.86.86,1.29,1.91,1.29,3.16s-.44,2.26-1.31,3.14-1.92,1.31-3.14,1.31-2.26-.44-3.14-1.31c-.88-.87-1.31-1.92-1.31-3.14s.43-2.3,1.29-3.16,1.91-1.29,3.16-1.29Z"/>
  <path class="cls-2" d="M774.05,504.17c-.21,1.48-.31,2.71-.31,3.69,0,2.64.93,4.89,2.8,6.74,1.87,1.85,4.14,2.78,6.81,2.78,2.14,0,4.19-.44,6.16-1.31,1.97-.87,4.9-2.81,8.79-5.81l.93,1.29c-7.03,6.97-13.73,10.46-20.11,10.46-4.33,0-7.59-1.36-9.79-4.09-2.2-2.73-3.29-5.74-3.29-9.03,0-4.42,1.36-8.94,4.09-13.57,2.73-4.63,6.15-8.23,10.28-10.79,4.12-2.57,8.37-3.85,12.73-3.85,3.14,0,5.47.64,6.99,1.91,1.51,1.28,2.27,2.79,2.27,4.54,0,2.46-.98,4.82-2.94,7.07-2.58,2.94-6.38,5.31-11.39,7.12-3.32,1.22-7.99,2.17-14.02,2.85ZM774.36,501.99c4.39-.5,7.96-1.36,10.72-2.58,3.65-1.63,6.38-3.58,8.21-5.85,1.82-2.27,2.74-4.43,2.74-6.47,0-1.25-.39-2.25-1.18-3.03-.79-.77-1.91-1.16-3.36-1.16-3.03,0-6.24,1.61-9.63,4.83-3.4,3.22-5.9,7.97-7.5,14.26Z"/>
  <path class="cls-2" d="M823.75,480.68l-5.92,20.25c5.55-8.28,9.8-13.72,12.75-16.33,2.95-2.61,5.79-3.92,8.52-3.92,1.48,0,2.71.49,3.67,1.47s1.45,2.25,1.45,3.83c0,1.78-.43,4.15-1.29,7.12l-5.43,18.73c-.62,2.17-.93,3.49-.93,3.96,0,.42.12.76.36,1.05.24.28.49.42.76.42.36,0,.79-.19,1.29-.58,1.57-1.25,3.29-3.14,5.16-5.69l1.38.85c-2.76,3.95-5.37,6.76-7.83,8.45-1.72,1.16-3.26,1.74-4.63,1.74-1.1,0-1.97-.33-2.63-1-.65-.67-.98-1.56-.98-2.69,0-1.42.5-3.87,1.51-7.34l5.16-17.89c.65-2.23.98-3.96.98-5.21,0-.59-.19-1.07-.58-1.45-.39-.37-.86-.56-1.42-.56-.83,0-1.82.36-2.98,1.07-2.19,1.33-4.48,3.54-6.85,6.61-2.37,3.07-4.88,6.99-7.52,11.77-1.39,2.52-2.55,5.28-3.47,8.28l-2.22,7.34h-6.68l8.1-27.85c.95-3.35,1.42-5.37,1.42-6.05s-.26-1.22-.78-1.71c-.52-.49-1.16-.73-1.94-.73-.36,0-.98.06-1.87.18l-1.69.27-.27-1.6,15.4-2.76Z"/>
  <path class="cls-2" d="M872.88,469.64l-3.47,12.1h6.99l-.76,2.8h-6.94l-7.65,26.25c-.83,2.82-1.25,4.64-1.25,5.47,0,.5.12.89.36,1.16.24.27.52.4.85.4.74,0,1.72-.52,2.94-1.56.71-.59,2.3-2.42,4.76-5.47l1.47,1.11c-2.73,3.98-5.31,6.78-7.74,8.41-1.66,1.13-3.34,1.69-5.03,1.69-1.31,0-2.37-.41-3.2-1.22s-1.25-1.86-1.25-3.14c0-1.6.47-4.05,1.42-7.34l7.43-25.76h-6.72l.45-1.73c3.26-.89,5.98-2.22,8.14-3.98s4.58-4.83,7.25-9.19h1.96Z"/>
  <path class="cls-2" d="M882.09,512.98c1.27,0,2.35.44,3.23,1.31.87.88,1.31,1.94,1.31,3.18s-.45,2.31-1.34,3.18c-.89.88-1.96,1.31-3.2,1.31s-2.31-.44-3.18-1.31c-.88-.87-1.31-1.94-1.31-3.18s.44-2.31,1.31-3.18c.87-.88,1.94-1.31,3.18-1.31Z"/>
</svg>