<?xml version="1.0" encoding="UTF-8"?>
<svg xmlns="http://www.w3.org/2000/svg" xmlns:xlink="http://www.w3.org/1999/xlink" viewBox="0 0 1000 1000" shape-rendering="geometricPrecision">
  <defs>
    <style>
      .cls-1 {
        fill: #d4b23c;
      }

      .cls-2 {
        fill: #211a57;
      }

      .cls-3 {
        fill: #000;
      }

      .cls-4 {
        opacity: .98;
      }

      .cls-5 {
        fill: url(#linear-gradient);
      }
    </style>
    <linearGradient id="linear-gradient" x1="99.22" y1="482.18" x2="408.79" y2="482.18" gradientUnits="userSpaceOnUse">
      <stop offset="0" stop-color="#d4b23c"/>
      <stop offset="1" stop-color="#be9c62"/>
    </linearGradient>
  </defs>

  <g id="Layer_1" data-name="Layer 1">
    <g>
      <g>
        <path class="cls-2" d="M744.73,575.66l-16.71-21.51-41.52-53.24-27.3,25.59-.43,49.15-53.23-.07.06-256.26c6.78-.1,13.8-.15,20.88-.15,11.59,0,22.83.14,32.58.41.42,33.13-.08,98.7-.09,99.37l.34,45.49,78.86-75.76h65.24l-28.18,28.47-48.8,49.48,83.03,109.02h-64.73Z"/>
        <path class="cls-1" d="M626.48,320.18c11.2,0,22.07.13,31.58.39.4,33.41-.1,97.73-.1,98.42l.32,43.15.03,4.65,3.35-3.22,76.89-73.87h62.44l-26.49,26.77-48.19,48.86-1.22,1.24,1.05,1.38,81.28,106.72h-62.22l-16.42-21.12-40.84-52.37-1.35-1.73-1.6,1.5-26.19,24.55-.62.59v.86s-.43,47.73-.43,47.73l-51.24-.07.06-254.28c6.48-.09,13.16-.14,19.89-.14M626.48,318.18c-7.52,0-14.94.06-21.89.17l-.06,258.24,55.22.07.44-49.71,26.19-24.55,40.84,52.37,17.02,21.89h67.23l-83.73-109.93,48.19-48.86,29.86-30.18h-68.04l-77.47,74.43-.32-43.15s.52-67.16.08-100.35c-10.51-.3-22.14-.44-33.56-.44h0Z"/>
      </g>
      <g>
        <path class="cls-2" d="M881.5,575.08c-2.07,0-4.15-.07-6.19-.21-20.06-1.34-36.51-5.66-51.63-22.41-7.37-9.16-11.36-20.74-11.2-32.56.08-14.8,4.37-25.48,13.9-34.66,20.27-19.49,45.04-19.59,68.99-19.68,12.39,0,25.04.16,37.59.44l1.11.03-.09-1.11c-1.63-19.72-9.35-29.88-25.81-33.98-5.68-1.42-11.49-2.13-17.28-2.13-16.25,0-32.56,5.29-52.77,17.13-4.33-8.65-15.1-30.73-17.46-35.57,6.85-2.91,48.44-20.26,69.97-21.75,3.29-.28,6.66-.42,10.04-.42,36.57,0,77.02,16.28,85.01,52.63v134.25l-48.12-.16c-.03-3.62-.12-16.28.1-22.58l.09-2.55-1.8,1.81c-2.67,2.68-5.69,5.72-8.65,8.47-10.3,9.54-27,15.01-45.8,15.01ZM915.67,494.89c-7.18,0-12.44.1-17.03.34l-1.25.07c-6.87.39-12.29.7-19.34,3.26-7.82,2.83-13.5,9.17-14.84,16.53-1.21,6.67,1.24,13.02,6.92,17.87,7.34,6.29,16.73,7.01,23.15,7.01,1.76,0,3.68-.06,5.86-.19,12.4-1.17,21.48-5.58,28.59-13.91,7.03-8.22,6.79-17.31,6.54-26.93-.03-1-.05-2-.07-3.02l-.02-.98h-2.36c-2.53,0-5.15-.01-7.81-.02-2.75-.02-5.55-.03-8.34-.03Z"/>
        <path class="cls-1" d="M900.68,389.2c19.13,0,37.76,4.38,52.44,12.33,16.97,9.19,27.88,22.81,31.56,39.41v133.13l-46.13-.15c-.03-4.54-.1-15.75.1-21.55l.17-5.09-3.59,3.62c-2.65,2.67-5.66,5.7-8.62,8.44-10.12,9.37-26.57,14.74-45.13,14.74-2.04,0-4.1-.07-6.12-.2-19.8-1.32-36.04-5.58-50.92-22.05-7.24-9.02-11.14-20.35-10.98-31.94.08-14.5,4.27-24.96,13.6-33.93,19.98-19.21,44.55-19.31,68.29-19.4,12.38,0,25.02.16,37.57.44l2.22.05-.18-2.21c-1.65-19.95-9.84-30.71-26.57-34.87-5.76-1.43-11.65-2.16-17.52-2.16-16.19,0-32.41,5.17-52.35,16.72-4.33-8.69-13.57-27.61-16.52-33.66,9.1-3.83,48.15-19.85,68.71-21.27,3.24-.28,6.59-.42,9.94-.42M893.27,540.98c1.78,0,3.72-.06,5.92-.19h.04s.04,0,.04,0c12.64-1.19,21.93-5.72,29.22-14.25,7.27-8.51,7.04-17.78,6.78-27.6-.03-.99-.05-2-.07-3.01l-.04-1.97h-1.97s-1.4,0-1.4,0c-2.52,0-5.14-.01-7.79-.03-2.75-.01-5.54-.03-8.32-.03-7.2,0-12.48.1-17.1.34l-1.24.07c-6.95.4-12.44.71-19.63,3.32-8.15,2.95-14.08,9.58-15.49,17.29-1.26,6.94,1.38,13.79,7.25,18.81,7.6,6.5,17.22,7.25,23.8,7.25M900.68,387.2c-3.44,0-6.82.14-10.11.42-23.84,1.65-71.26,22.24-71.26,22.24,0,0,13.95,28.62,18.41,37.48,16.75-9.92,34.27-17.53,53.18-17.53,5.55,0,11.22.66,17.03,2.1,17.54,4.36,23.64,15.91,25.06,33.09-12.54-.29-25.08-.44-37.62-.44-25.87.1-49.71.75-69.68,19.96-10.25,9.86-14.13,21.11-14.21,35.36-.17,12.08,3.88,23.84,11.46,33.25,14.58,16.15,30.81,21.31,52.31,22.74,2.04.14,4.13.21,6.25.21,16.38,0,34.55-4.23,46.49-15.27,2.91-2.7,5.85-5.65,8.68-8.5-.26,7.46-.09,23.61-.09,23.61l50.11.16v-135.36c-8.24-37.84-50.06-53.53-86.01-53.53h0ZM893.27,538.98c-8.14,0-16.14-1.33-22.5-6.77-12.53-10.72-6.65-27.53,7.62-32.7,7.33-2.65,12.8-2.83,20.3-3.27,5.33-.27,11.15-.34,16.99-.34,5.48,0,10.97.06,16.11.06.47,0,.94,0,1.41,0,.19,10.78,1.25,20.52-6.23,29.28-7.45,8.71-16.81,12.52-27.89,13.56-1.93.11-3.87.19-5.8.19h0Z"/>
      </g>
      <g data-c-fill="270159">
        <polygon class="cls-2" points="409.8 544.48 507.62 430.24 413.79 430.18 414 388.69 574.9 388.69 574.94 421.03 547.05 454.54 478.9 534.35 578.82 534.45 578.87 575.63 516.39 575.5 410.64 575.66 409.8 544.48"/>
        <path class="cls-1" d="M573.9,389.69l.04,30.98-27.64,33.21-66.76,78.18-2.81,3.29h4.33s96.76.09,96.76.09l.05,39.19-61.49-.14-104.77.16-.8-29.82,96.16-112.3,2.82-3.3h-4.34s-90.65-.05-90.65-.05l.19-39.5h158.91M575.9,387.69h-162.89l-.21,43.49,92.66.05-96.66,112.89.88,32.54,106.72-.17,63.49.14-.06-43.19-98.75-.09,66.76-78.18,28.12-33.78-.04-33.7h0Z"/>
      </g>
      <g>
        <path class="cls-2" d="M108.03,575.66c-21.38,0-41.13-6.94-58.69-20.64-19.36-15.09-31.25-36.78-34.38-62.71-2.98-24.62,4.52-49.52,21.1-70.12,11.83-14.69,36.1-30.71,59.61-32.92,4.18-.39,8.27-.59,12.15-.59,22.34,0,41.05,6.47,58.89,20.35,10.11,7.87,18.92,17.81,27.43,27.42l1.64,1.85c1.96,2.21,6.64,8.9,8.09,10.99l-38.3,44.78c-5.61-.01-60.36-.15-79.64-.15-3.31,0-6.7-.03-10.12-.05-3.47-.03-6.98-.06-10.45-.06-4.98,0-9.02.06-12.71.18l-1.25.04.32,1.21c.5,1.9,1.04,3.95,1.66,6.03,4.55,15.26,15.88,27.75,31.89,35.16,2.87,1.33,5.88,2.57,8.95,3.69,13.28,4.84,27.46,7.39,40.99,7.39,4.62,0,9.23-.29,13.69-.88,6.05-.79,12-2.33,18.21-4.73,9.77-3.78,18.89-9.21,28.01-15.08-7.41,10.38-18.64,21.2-32.06,30.84-14.47,10.4-28.91,15.97-45.45,17.54-3.2.3-6.42.46-9.57.46ZM110.93,466.76c4.64,0,9.5.04,14.44.08,5.07.04,10.32.09,15.44.09,6.76,0,12.17-.08,17.05-.25l1.19-.04-.24-1.16c-2.66-12.69-7.23-21.84-14.82-29.67-9.95-10.26-22.46-15.24-38.24-15.24-1.67,0-3.41.05-5.17.16-24.78,2.24-43.81,19.85-48.53,44.85l-.22,1.19,59.11-.02Z"/>
        <path class="cls-1" d="M107.82,389.69c22.1,0,40.62,6.4,58.27,20.14,10.04,7.81,18.81,17.72,27.3,27.29l1.64,1.85c1.76,1.99,5.79,7.71,7.57,10.27l-37.5,43.84c-7.64-.02-60.34-.15-79.18-.15-3.3,0-6.76-.03-10.1-.05-3.43-.03-6.97-.06-10.45-.06-5.01,0-9.06.06-12.77.18l-2.5.08.63,2.42c.5,1.91,1.04,3.97,1.67,6.06,4.63,15.54,16.15,28.25,32.43,35.78,2.9,1.34,5.94,2.59,9.03,3.72,13.39,4.88,27.68,7.45,41.33,7.45,4.67,0,9.32-.3,13.82-.88,6.13-.8,12.16-2.36,18.44-4.79,8.17-3.16,15.86-7.45,23.48-12.19-7.2,8.91-17.03,17.98-28.47,26.2-14.32,10.29-28.61,15.81-44.96,17.36-3.17.3-6.36.45-9.48.45-21.16,0-40.69-6.87-58.08-20.42-19.14-14.93-30.9-36.38-34.01-62.04-2.94-24.35,4.48-48.99,20.89-69.37,11.69-14.52,35.69-30.37,58.93-32.55,4.15-.39,8.21-.59,12.06-.59M50.61,467.78h2.41s57.91-.02,57.91-.02c4.63,0,9.39.04,14.43.09,5.07.04,10.32.09,15.45.09,6.77,0,12.2-.08,17.08-.25l2.38-.08-.49-2.33c-2.7-12.89-7.35-22.19-15.08-30.16-10.15-10.46-22.89-15.55-38.96-15.55-1.69,0-3.45.06-5.24.16h-.03s-.03,0-.03,0c-25.2,2.28-44.59,20.21-49.39,45.66l-.45,2.37M107.82,387.69c-3.98,0-8.06.2-12.25.6-23.28,2.19-47.9,17.9-60.3,33.29-15.95,19.8-24.45,44.94-21.32,70.87,3.11,25.71,14.67,47.72,34.76,63.38,17.3,13.49,37.25,20.85,59.31,20.85,3.18,0,6.4-.15,9.66-.46,17.92-1.7,32.4-7.99,45.94-17.72,12.76-9.17,26.33-21.41,34.79-34.79.08-.12.15-.24.23-.36-10.32,6.75-20.65,13.3-31.92,17.65-5.71,2.21-11.66,3.85-17.97,4.67-4.49.58-9.02.87-13.56.87-13.83,0-27.72-2.62-40.65-7.33-3.01-1.09-5.97-2.31-8.87-3.65-14.82-6.86-26.62-18.68-31.35-34.54-.59-1.99-1.13-3.98-1.65-5.99,4.13-.14,8.4-.18,12.71-.18,6.89,0,13.87.11,20.55.11,20.46,0,80.1.16,80.1.16l39.1-45.71s-6.2-9.02-8.6-11.72c-9.1-10.25-18.37-20.96-29.2-29.4-18.55-14.43-37.63-20.56-59.5-20.56h0ZM53.02,465.78c4.59-24.32,22.7-41.79,47.61-44.04,1.73-.11,3.43-.16,5.11-.16,14.33,0,26.91,4,37.52,14.94,8.19,8.44,12.19,17.85,14.56,29.18-5.41.19-11.17.24-17.01.24-10.07,0-20.44-.17-29.88-.17l-57.91.02h0Z"/>
      </g>
      <path class="cls-5" d="M255.61,457.36h0c7.03-8.29,12.3-14.5,12.42-14.62,18.71-18.49,27.52-20.11,45.45-20.11,71.86,1.91,82.98,101.54,13.29,119.25-43.83,10.32-83.82-31.52-71.51-74.84l-38.11,44.93s10.48,14.77,15.71,22.71c47.62,72.2,174.46,48.74,175.91-50.74.51-53.32-42.76-96.65-96.06-96.24-27.49-.04-52.18,12.24-69.45,31.23h0c-44.53,49.6-27.35,30.31-61.19,68.52-14.33,16.18-58.96,61.69-82.87,53.97,42.14,13.62,76.37,7.88,94.37-10.92"/>
    </g>
    <g class="cls-4">
      <path class="cls-1" d="M158.76,619.98l-4.59,50.29c-.24,2.35-.36,3.89-.36,4.64,0,1.19.22,2.09.67,2.72.56.86,1.33,1.5,2.3,1.92.97.42,2.59.62,4.88.62l-.49,1.65h-23.81l.49-1.65h1.03c1.93,0,3.51-.42,4.73-1.25.86-.56,1.53-1.5,2.01-2.81.33-.92.64-3.09.94-6.51l.71-7.67h-17.3l-6.15,8.34c-1.4,1.87-2.27,3.22-2.63,4.03-.36.82-.54,1.58-.54,2.3,0,.95.39,1.77,1.16,2.45.77.68,2.05,1.06,3.83,1.12l-.49,1.65h-17.88l.49-1.65c2.2-.09,4.14-.83,5.82-2.21s4.18-4.33,7.51-8.85l36.11-49.13h1.56ZM149.93,634.83l-17.52,23.85h15.2l2.32-23.85Z"/>
      <path class="cls-1" d="M210.48,642.54l-7.76,26.57c-1.16,3.95-1.74,6.45-1.74,7.49,0,.53.1.93.29,1.18.19.25.45.38.78.38.5,0,1.06-.23,1.67-.69.61-.46,2.15-2.3,4.61-5.51l1.34,1.03c-2.35,3.72-4.76,6.45-7.22,8.2-1.64,1.13-3.21,1.69-4.73,1.69-1.16,0-2.07-.33-2.72-.98-.65-.65-.98-1.5-.98-2.54s.19-2.35.58-4.01c.48-2.2,1.83-6.98,4.06-14.36-5.05,8.29-9.28,14.01-12.68,17.16-3.4,3.15-6.56,4.73-9.47,4.73-1.37,0-2.53-.48-3.48-1.43-.95-.95-1.43-2.16-1.43-3.61,0-2.23.65-5.65,1.96-10.25l3.88-13.78c.95-3.3,1.43-5.35,1.43-6.15,0-.36-.13-.66-.38-.91-.25-.25-.53-.38-.82-.38-.62,0-1.25.22-1.87.67-.62.45-2.04,2.1-4.24,4.95l-1.38-.98c2.23-3.45,4.59-5.99,7.09-7.62,1.9-1.28,3.66-1.92,5.26-1.92,1.1,0,2,.35,2.7,1.05.7.7,1.05,1.6,1.05,2.7,0,1.61-.59,4.47-1.78,8.61l-4.19,14.4c-1.16,3.92-1.74,6.41-1.74,7.45,0,.56.19,1.02.56,1.36.37.34.87.51,1.49.51.98,0,2.26-.49,3.83-1.47,1.57-.98,3.68-3.16,6.31-6.53,2.63-3.37,4.8-6.54,6.51-9.5,1.71-2.96,3.53-7.66,5.46-14.11l.98-3.39h6.78Z"/>
      <path class="cls-1" d="M260.72,644.24l-1.29,4.64h-7.45c.56,1.61.85,3.11.85,4.5,0,3.92-1.66,7.42-4.99,10.48-3.36,3.06-7.97,4.76-13.82,5.08-3.15.95-5.51,2.08-7.09,3.39-.59.48-.89.97-.89,1.47,0,.6.27,1.14.8,1.63.54.49,1.89.99,4.06,1.49l8.65,2.01c4.79,1.13,7.95,2.47,9.5,4.01,1.52,1.58,2.27,3.39,2.27,5.44,0,2.44-.9,4.67-2.7,6.69-1.8,2.02-4.43,3.6-7.89,4.75-3.46,1.14-7.29,1.72-11.48,1.72-3.69,0-7.04-.44-10.08-1.32-3.03-.88-5.2-2.06-6.51-3.54-1.31-1.49-1.96-3.02-1.96-4.59,0-1.28.42-2.61,1.27-3.99.85-1.38,1.91-2.52,3.19-3.41.8-.57,3.08-1.9,6.82-4.01-1.37-1.07-2.05-2.24-2.05-3.52,0-1.19.6-2.45,1.81-3.79,1.2-1.34,3.75-2.81,7.65-4.41-3.27-.62-5.86-1.99-7.78-4.1s-2.88-4.46-2.88-7.04c0-4.22,1.85-8,5.55-11.32,3.7-3.33,8.63-4.99,14.78-4.99,2.23,0,4.06.22,5.48.67,1.43.45,2.81,1.14,4.15,2.1h12.04ZM223.9,681.82c-2.41,1.1-4.23,2.51-5.46,4.24-1.23,1.72-1.85,3.42-1.85,5.08,0,1.96.89,3.58,2.67,4.86,2.56,1.84,6.3,2.76,11.23,2.76,4.25,0,7.88-.72,10.9-2.16,3.02-1.44,4.53-3.31,4.53-5.59,0-1.16-.56-2.26-1.67-3.3-1.11-1.04-3.28-1.89-6.49-2.54-1.75-.36-6.38-1.47-13.87-3.34ZM245.25,651.24c0-2.38-.66-4.25-1.98-5.62-1.32-1.37-3.05-2.05-5.19-2.05-3.36,0-6.13,1.69-8.31,5.06-2.18,3.37-3.28,6.89-3.28,10.54,0,2.29.7,4.16,2.1,5.62,1.4,1.46,3.09,2.18,5.08,2.18,1.58,0,3.1-.43,4.57-1.29,1.47-.86,2.71-2.05,3.72-3.57,1.01-1.52,1.81-3.45,2.41-5.8.59-2.35.89-4.04.89-5.08Z"/>
      <path class="cls-1" d="M278.6,641.47l-5.8,20.11c2.59-4.73,4.79-8.28,6.6-10.66,2.82-3.68,5.57-6.36,8.25-8.03,1.57-.95,3.22-1.43,4.95-1.43,1.49,0,2.72.48,3.7,1.43.98.95,1.47,2.17,1.47,3.66s-.34,3.36-1.03,5.71l-3.17,11.32c4.84-9.07,9.44-15.43,13.78-19.08,2.41-2.02,4.78-3.03,7.13-3.03,1.37,0,2.49.47,3.37,1.4.88.94,1.32,2.38,1.32,4.35,0,1.72-.27,3.55-.8,5.48l-4.9,17.34c-1.07,3.78-1.6,5.87-1.6,6.29s.13.77.4,1.07c.18.21.42.31.71.31s.82-.28,1.56-.85c1.69-1.31,3.28-3.03,4.77-5.17l1.47.94c-.74,1.19-2.06,2.82-3.95,4.9-1.89,2.08-3.5,3.49-4.84,4.24-1.34.74-2.57,1.12-3.7,1.12-1.04,0-1.91-.36-2.61-1.07s-1.05-1.59-1.05-2.63c0-1.43.61-4.29,1.83-8.6l4.06-14.31c.92-3.3,1.41-5.13,1.47-5.48.09-.56.13-1.11.13-1.65,0-.74-.16-1.32-.49-1.74-.36-.42-.76-.62-1.2-.62-1.25,0-2.57.64-3.97,1.92-4.1,3.78-7.94,9.07-11.5,15.87-2.35,4.49-4.55,10.24-6.6,17.25h-6.73l7.62-26.97c.83-2.91,1.25-4.86,1.25-5.84,0-.8-.16-1.4-.49-1.78-.33-.39-.73-.58-1.2-.58-.98,0-2.02.36-3.12,1.07-1.78,1.16-4.08,3.64-6.89,7.45-2.81,3.8-4.99,7.45-6.53,10.92-.74,1.63-2.51,6.88-5.31,15.74h-6.6l8.25-28.89,1.07-3.74c.21-.56.31-.98.31-1.25,0-.65-.3-1.24-.89-1.76-.59-.52-1.35-.78-2.27-.78-.39,0-1.46.18-3.21.54l-.4-1.65,15.38-2.81Z"/>
      <path class="cls-1" d="M335.62,665.01c-.21,1.49-.31,2.72-.31,3.7,0,2.65.94,4.9,2.81,6.75,1.87,1.86,4.15,2.79,6.82,2.79,2.14,0,4.2-.44,6.17-1.32,1.98-.88,4.91-2.82,8.81-5.82l.94,1.29c-7.04,6.99-13.76,10.48-20.15,10.48-4.34,0-7.61-1.37-9.81-4.1-2.2-2.73-3.3-5.75-3.3-9.05,0-4.43,1.37-8.96,4.1-13.6,2.73-4.64,6.17-8.24,10.3-10.81,4.13-2.57,8.38-3.86,12.75-3.86,3.15,0,5.48.64,7,1.92s2.27,2.79,2.27,4.55c0,2.47-.98,4.83-2.94,7.09-2.59,2.94-6.39,5.32-11.41,7.13-3.33,1.22-8.01,2.17-14.04,2.85ZM335.94,662.83c4.4-.51,7.98-1.37,10.74-2.59,3.66-1.63,6.4-3.59,8.23-5.86,1.83-2.27,2.74-4.44,2.74-6.49,0-1.25-.39-2.26-1.18-3.03-.79-.77-1.91-1.16-3.37-1.16-3.03,0-6.25,1.61-9.65,4.84s-5.91,7.99-7.51,14.29Z"/>
      <path class="cls-1" d="M385.42,641.47l-5.93,20.29c5.56-8.29,9.82-13.75,12.77-16.36,2.96-2.62,5.8-3.92,8.54-3.92,1.49,0,2.71.49,3.68,1.47.97.98,1.45,2.26,1.45,3.83,0,1.78-.43,4.16-1.29,7.13l-5.44,18.77c-.62,2.17-.94,3.49-.94,3.97,0,.42.12.77.36,1.05.24.28.49.42.76.42.36,0,.79-.19,1.29-.58,1.58-1.25,3.3-3.15,5.17-5.71l1.38.85c-2.76,3.95-5.38,6.78-7.85,8.47-1.72,1.16-3.27,1.74-4.64,1.74-1.1,0-1.98-.33-2.63-1-.65-.67-.98-1.57-.98-2.7,0-1.43.5-3.88,1.52-7.36l5.17-17.92c.65-2.23.98-3.97.98-5.22,0-.59-.19-1.08-.58-1.45-.39-.37-.86-.56-1.43-.56-.83,0-1.83.36-2.99,1.07-2.2,1.34-4.49,3.54-6.87,6.62s-4.89,7.01-7.53,11.79c-1.4,2.53-2.56,5.29-3.48,8.29l-2.23,7.36h-6.69l8.11-27.91c.95-3.36,1.43-5.38,1.43-6.06s-.26-1.23-.78-1.72c-.52-.49-1.17-.74-1.94-.74-.36,0-.98.06-1.87.18l-1.69.27-.27-1.61,15.43-2.76Z"/>
      <path class="cls-1" d="M434.64,630.42l-3.48,12.13h7l-.76,2.81h-6.95l-7.67,26.3c-.83,2.82-1.25,4.65-1.25,5.48,0,.51.12.89.36,1.16.24.27.52.4.85.4.74,0,1.72-.52,2.94-1.56.71-.59,2.3-2.42,4.77-5.48l1.47,1.11c-2.73,3.98-5.32,6.79-7.76,8.43-1.67,1.13-3.34,1.69-5.04,1.69-1.31,0-2.38-.41-3.21-1.23s-1.25-1.86-1.25-3.14c0-1.61.48-4.06,1.43-7.36l7.45-25.81h-6.73l.45-1.74c3.27-.89,5.99-2.22,8.16-3.99,2.17-1.77,4.59-4.84,7.27-9.21h1.96Z"/>
      <path class="cls-1" d="M457.29,641.47l-8.83,31.25c-.6,2.11-.89,3.37-.89,3.79,0,.48.14.86.42,1.16.28.3.62.45,1,.45.45,0,.98-.24,1.6-.71,1.69-1.34,3.4-3.24,5.13-5.71l1.56,1.03c-2.02,3.09-4.4,5.69-7.13,7.8-2.02,1.58-3.95,2.36-5.8,2.36-1.22,0-2.21-.36-2.99-1.09-.77-.73-1.16-1.64-1.16-2.74s.37-2.93,1.11-5.48l5.8-19.97c.95-3.27,1.43-5.32,1.43-6.15,0-.65-.23-1.19-.69-1.6-.46-.42-1.09-.62-1.89-.62-.65,0-2.01.16-4.06.49v-1.74l15.38-2.5ZM456.71,623.77c1.25,0,2.3.43,3.17,1.29.86.86,1.29,1.92,1.29,3.17s-.44,2.27-1.31,3.14c-.88.88-1.92,1.32-3.14,1.32s-2.27-.44-3.14-1.32c-.88-.88-1.32-1.92-1.32-3.14s.43-2.3,1.29-3.17c.86-.86,1.92-1.29,3.17-1.29Z"/>
      <path class="cls-1" d="M481.81,641.47l-5.93,20.29c5.56-8.29,9.82-13.75,12.77-16.36,2.96-2.62,5.8-3.92,8.54-3.92,1.49,0,2.71.49,3.68,1.47.96.98,1.45,2.26,1.45,3.83,0,1.78-.43,4.16-1.29,7.13l-5.44,18.77c-.62,2.17-.94,3.49-.94,3.97,0,.42.12.77.36,1.05.24.28.49.42.76.42.36,0,.79-.19,1.29-.58,1.58-1.25,3.3-3.15,5.17-5.71l1.38.85c-2.76,3.95-5.38,6.78-7.85,8.47-1.72,1.16-3.27,1.74-4.64,1.74-1.1,0-1.98-.33-2.63-1-.65-.67-.98-1.57-.98-2.7,0-1.43.5-3.88,1.52-7.36l5.17-17.92c.65-2.23.98-3.97.98-5.22,0-.59-.19-1.08-.58-1.45-.39-.37-.86-.56-1.43-.56-.83,0-1.83.36-2.99,1.07-2.2,1.34-4.49,3.54-6.87,6.62s-4.89,7.01-7.53,11.79c-1.4,2.53-2.56,5.29-3.48,8.29l-2.23,7.36h-6.69l8.11-27.91c.95-3.36,1.43-5.38,1.43-6.06s-.26-1.23-.78-1.72c-.52-.49-1.17-.74-1.94-.74-.36,0-.98.06-1.87.18l-1.69.27-.27-1.61,15.43-2.76Z"/>
      <path class="cls-1" d="M554.89,644.24l-1.29,4.64h-7.45c.56,1.61.85,3.11.85,4.5,0,3.92-1.67,7.42-4.99,10.48-3.36,3.06-7.97,4.76-13.82,5.08-3.15.95-5.51,2.08-7.09,3.39-.59.48-.89.97-.89,1.47,0,.6.27,1.14.8,1.63.53.49,1.89.99,4.06,1.49l8.65,2.01c4.79,1.13,7.95,2.47,9.5,4.01,1.52,1.58,2.27,3.39,2.27,5.44,0,2.44-.9,4.67-2.7,6.69-1.8,2.02-4.43,3.6-7.89,4.75-3.46,1.14-7.29,1.72-11.48,1.72-3.69,0-7.04-.44-10.08-1.32-3.03-.88-5.2-2.06-6.51-3.54-1.31-1.49-1.96-3.02-1.96-4.59,0-1.28.42-2.61,1.27-3.99.85-1.38,1.91-2.52,3.19-3.41.8-.57,3.08-1.9,6.82-4.01-1.37-1.07-2.05-2.24-2.05-3.52,0-1.19.6-2.45,1.81-3.79,1.2-1.34,3.75-2.81,7.65-4.41-3.27-.62-5.86-1.99-7.78-4.1s-2.88-4.46-2.88-7.04c0-4.22,1.85-8,5.55-11.32,3.7-3.33,8.63-4.99,14.78-4.99,2.23,0,4.06.22,5.48.67,1.43.45,2.81,1.14,4.15,2.1h12.04ZM518.06,681.82c-2.41,1.1-4.23,2.51-5.46,4.24s-1.85,3.42-1.85,5.08c0,1.96.89,3.58,2.68,4.86,2.56,1.84,6.3,2.76,11.23,2.76,4.25,0,7.88-.72,10.9-2.16,3.02-1.44,4.52-3.31,4.52-5.59,0-1.16-.56-2.26-1.67-3.3-1.11-1.04-3.28-1.89-6.49-2.54-1.75-.36-6.38-1.47-13.87-3.34ZM539.42,651.24c0-2.38-.66-4.25-1.98-5.62-1.32-1.37-3.05-2.05-5.19-2.05-3.36,0-6.13,1.69-8.31,5.06-2.18,3.37-3.28,6.89-3.28,10.54,0,2.29.7,4.16,2.1,5.62,1.4,1.46,3.09,2.18,5.08,2.18,1.58,0,3.1-.43,4.57-1.29,1.47-.86,2.71-2.05,3.72-3.57s1.81-3.45,2.41-5.8c.59-2.35.89-4.04.89-5.08Z"/>
      <path class="cls-1" d="M576.42,683.2l4.99-22.42h1.52c-.21,2.17-.31,3.97-.31,5.39,0,4.07,1.3,7.39,3.9,9.94,2.6,2.56,6,3.83,10.19,3.83,3.89,0,6.85-1.2,8.87-3.59,2.02-2.39,3.03-5.15,3.03-8.27,0-2.02-.46-3.86-1.38-5.53-1.4-2.47-5.13-6.81-11.19-13.02-2.94-2.97-4.83-5.19-5.66-6.64-1.37-2.41-2.05-4.93-2.05-7.58,0-4.22,1.58-7.83,4.73-10.83,3.15-3,7.19-4.5,12.13-4.5,1.66,0,3.24.16,4.73.49.92.18,2.6.77,5.04,1.78,1.72.68,2.67,1.06,2.85,1.11.42.09.88.13,1.38.13.86,0,1.6-.22,2.23-.67.62-.45,1.35-1.4,2.18-2.85h1.69l-4.64,20.06h-1.52c.12-1.78.18-3.22.18-4.33,0-3.6-1.19-6.54-3.57-8.83-2.38-2.29-5.51-3.43-9.41-3.43-3.09,0-5.6.91-7.54,2.72-1.93,1.81-2.9,3.91-2.9,6.29,0,2.08.62,4.07,1.85,5.95,1.23,1.89,4.07,4.96,8.52,9.23,4.44,4.26,7.32,7.59,8.63,9.99s1.96,4.94,1.96,7.65c0,3.06-.81,6.03-2.43,8.89-1.62,2.87-3.95,5.09-6.98,6.67-3.03,1.57-6.35,2.36-9.94,2.36-1.78,0-3.45-.16-4.99-.49-1.55-.33-4.01-1.13-7.4-2.41-1.16-.45-2.13-.67-2.9-.67-1.75,0-3.12,1.19-4.1,3.57h-1.69Z"/>
      <path class="cls-1" d="M632.33,665.01c-.21,1.49-.31,2.72-.31,3.7,0,2.65.94,4.9,2.81,6.75,1.87,1.86,4.15,2.79,6.82,2.79,2.14,0,4.2-.44,6.17-1.32,1.98-.88,4.91-2.82,8.81-5.82l.94,1.29c-7.04,6.99-13.76,10.48-20.15,10.48-4.34,0-7.61-1.37-9.81-4.1-2.2-2.73-3.3-5.75-3.3-9.05,0-4.43,1.37-8.96,4.1-13.6,2.73-4.64,6.17-8.24,10.3-10.81,4.13-2.57,8.38-3.86,12.75-3.86,3.15,0,5.48.64,7,1.92,1.52,1.28,2.27,2.79,2.27,4.55,0,2.47-.98,4.83-2.94,7.09-2.59,2.94-6.39,5.32-11.41,7.13-3.33,1.22-8.01,2.17-14.04,2.85ZM632.64,662.83c4.4-.51,7.98-1.37,10.75-2.59,3.66-1.63,6.4-3.59,8.23-5.86,1.83-2.27,2.74-4.44,2.74-6.49,0-1.25-.39-2.26-1.18-3.03-.79-.77-1.91-1.16-3.37-1.16-3.03,0-6.25,1.61-9.65,4.84-3.4,3.22-5.91,7.99-7.51,14.29Z"/>
      <path class="cls-1" d="M682.13,641.47l-5.93,20.29c5.56-8.29,9.82-13.75,12.77-16.36,2.96-2.62,5.8-3.92,8.54-3.92,1.49,0,2.71.49,3.68,1.47s1.45,2.26,1.45,3.83c0,1.78-.43,4.16-1.29,7.13l-5.44,18.77c-.62,2.17-.94,3.49-.94,3.97,0,.42.12.77.36,1.05.24.28.49.42.76.42.36,0,.79-.19,1.29-.58,1.58-1.25,3.3-3.15,5.17-5.71l1.38.85c-2.76,3.95-5.38,6.78-7.85,8.47-1.72,1.16-3.27,1.74-4.64,1.74-1.1,0-1.98-.33-2.63-1-.65-.67-.98-1.57-.98-2.7,0-1.43.5-3.88,1.52-7.36l5.17-17.92c.65-2.23.98-3.97.98-5.22,0-.59-.19-1.08-.58-1.45-.39-.37-.86-.56-1.43-.56-.83,0-1.83.36-2.99,1.07-2.2,1.34-4.49,3.54-6.87,6.62-2.38,3.08-4.89,7.01-7.54,11.79-1.4,2.53-2.56,5.29-3.48,8.29l-2.23,7.36h-6.69l8.11-27.91c.95-3.36,1.43-5.38,1.43-6.06s-.26-1.23-.78-1.72c-.52-.49-1.17-.74-1.94-.74-.36,0-.98.06-1.87.18l-1.69.27-.27-1.61,15.43-2.76Z"/>
      <path class="cls-1" d="M731.35,630.42l-3.48,12.13h7l-.76,2.81h-6.96l-7.67,26.3c-.83,2.82-1.25,4.65-1.25,5.48,0,.51.12.89.36,1.16.24.27.52.4.85.4.74,0,1.72-.52,2.94-1.56.71-.59,2.3-2.42,4.77-5.48l1.47,1.11c-2.74,3.98-5.32,6.79-7.76,8.43-1.67,1.13-3.34,1.69-5.04,1.69-1.31,0-2.38-.41-3.21-1.23s-1.25-1.86-1.25-3.14c0-1.61.47-4.06,1.43-7.36l7.45-25.81h-6.73l.45-1.74c3.27-.89,5.99-2.22,8.16-3.99s4.59-4.84,7.27-9.21h1.96Z"/>
      <path class="cls-1" d="M754,641.47l-8.83,31.25c-.59,2.11-.89,3.37-.89,3.79,0,.48.14.86.42,1.16.28.3.62.45,1,.45.45,0,.98-.24,1.61-.71,1.69-1.34,3.4-3.24,5.13-5.71l1.56,1.03c-2.02,3.09-4.4,5.69-7.13,7.8-2.02,1.58-3.95,2.36-5.8,2.36-1.22,0-2.21-.36-2.99-1.09-.77-.73-1.16-1.64-1.16-2.74s.37-2.93,1.11-5.48l5.8-19.97c.95-3.27,1.43-5.32,1.43-6.15,0-.65-.23-1.19-.69-1.6s-1.09-.62-1.89-.62c-.65,0-2.01.16-4.06.49v-1.74l15.38-2.5ZM753.42,623.77c1.25,0,2.3.43,3.17,1.29.86.86,1.29,1.92,1.29,3.17s-.44,2.27-1.32,3.14-1.92,1.32-3.14,1.32-2.27-.44-3.14-1.32c-.88-.88-1.32-1.92-1.32-3.14s.43-2.3,1.29-3.17,1.92-1.29,3.17-1.29Z"/>
      <path class="cls-1" d="M769.24,665.01c-.21,1.49-.31,2.72-.31,3.7,0,2.65.94,4.9,2.81,6.75,1.87,1.86,4.15,2.79,6.82,2.79,2.14,0,4.2-.44,6.17-1.32,1.98-.88,4.91-2.82,8.81-5.82l.94,1.29c-7.04,6.99-13.76,10.48-20.15,10.48-4.34,0-7.61-1.37-9.81-4.1-2.2-2.73-3.3-5.75-3.3-9.05,0-4.43,1.37-8.96,4.1-13.6,2.73-4.64,6.17-8.24,10.3-10.81,4.13-2.57,8.38-3.86,12.75-3.86,3.15,0,5.48.64,7,1.92,1.52,1.28,2.27,2.79,2.27,4.55,0,2.47-.98,4.83-2.94,7.09-2.59,2.94-6.39,5.32-11.41,7.13-3.33,1.22-8.01,2.17-14.04,2.85ZM769.56,662.83c4.4-.51,7.98-1.37,10.75-2.59,3.66-1.63,6.4-3.59,8.23-5.86,1.83-2.27,2.74-4.44,2.74-6.49,0-1.25-.39-2.26-1.18-3.03-.79-.77-1.91-1.16-3.37-1.16-3.03,0-6.25,1.61-9.65,4.84-3.4,3.22-5.91,7.99-7.51,14.29Z"/>
      <path class="cls-1" d="M819.04,641.47l-5.93,20.29c5.56-8.29,9.82-13.75,12.77-16.36,2.96-2.62,5.8-3.92,8.54-3.92,1.49,0,2.71.49,3.68,1.47s1.45,2.26,1.45,3.83c0,1.78-.43,4.16-1.29,7.13l-5.44,18.77c-.62,2.17-.94,3.49-.94,3.97,0,.42.12.77.36,1.05.24.28.49.42.76.42.36,0,.79-.19,1.29-.58,1.58-1.25,3.3-3.15,5.17-5.71l1.38.85c-2.76,3.95-5.38,6.78-7.85,8.47-1.72,1.16-3.27,1.74-4.64,1.74-1.1,0-1.98-.33-2.63-1-.65-.67-.98-1.57-.98-2.7,0-1.43.5-3.88,1.52-7.36l5.17-17.92c.65-2.23.98-3.97.98-5.22,0-.59-.19-1.08-.58-1.45-.39-.37-.86-.56-1.43-.56-.83,0-1.83.36-2.99,1.07-2.2,1.34-4.49,3.54-6.87,6.62-2.38,3.08-4.89,7.01-7.54,11.79-1.4,2.53-2.56,5.29-3.48,8.29l-2.23,7.36h-6.69l8.11-27.91c.95-3.36,1.43-5.38,1.43-6.06s-.26-1.23-.78-1.72c-.52-.49-1.17-.74-1.94-.74-.36,0-.98.06-1.87.18l-1.69.27-.27-1.61,15.43-2.76Z"/>
      <path class="cls-1" d="M868.26,630.42l-3.48,12.13h7l-.76,2.81h-6.96l-7.67,26.3c-.83,2.82-1.25,4.65-1.25,5.48,0,.51.12.89.36,1.16.24.27.52.4.85.4.74,0,1.72-.52,2.94-1.56.71-.59,2.3-2.42,4.77-5.48l1.47,1.11c-2.74,3.98-5.32,6.79-7.76,8.43-1.67,1.13-3.34,1.69-5.04,1.69-1.31,0-2.38-.41-3.21-1.23s-1.25-1.86-1.25-3.14c0-1.61.47-4.06,1.43-7.36l7.45-25.81h-6.73l.45-1.74c3.27-.89,5.99-2.22,8.16-3.99s4.59-4.84,7.27-9.21h1.96Z"/>
      <path class="cls-1" d="M877.49,673.84c1.28,0,2.36.44,3.23,1.32.88.88,1.32,1.94,1.32,3.19s-.45,2.31-1.34,3.19c-.89.88-1.96,1.32-3.21,1.32s-2.31-.44-3.19-1.32c-.88-.88-1.32-1.94-1.32-3.19s.44-2.31,1.32-3.19c.88-.88,1.94-1.32,3.19-1.32Z"/>
    </g>
  </g>
</svg>