<?xml version="1.0" encoding="UTF-8"?>
<svg id="Layer_1" data-name="Layer 1" xmlns="http://www.w3.org/2000/svg" viewBox="0 0 1000 1000">
  <defs>
    <style>
      .cls-1 {
        fill: #d4b23c;
      }
    </style>
  </defs>
  <path class="cls-1" d="M111.2,459.23l-5.32,58.21c-.27,2.72-.41,4.51-.41,5.37,0,1.38.26,2.42.77,3.15.65,1,1.54,1.74,2.66,2.22s3,.72,5.65.72l-.57,1.91h-27.56l.57-1.91h1.19c2.24,0,4.06-.48,5.47-1.44,1-.65,1.77-1.74,2.32-3.25.38-1.07.74-3.58,1.08-7.53l.83-8.88h-20.02l-7.12,9.65c-1.62,2.17-2.63,3.72-3.04,4.67-.41.95-.62,1.83-.62,2.66,0,1.1.45,2.05,1.34,2.84.89.79,2.37,1.22,4.44,1.29l-.57,1.91h-20.69l.57-1.91c2.55-.1,4.79-.96,6.73-2.55,1.94-1.6,4.84-5.01,8.7-10.24l41.8-56.87h1.81ZM100.98,476.41l-20.28,27.61h17.6l2.68-27.61Z"/>
  <path class="cls-1" d="M171.06,485.34l-8.98,30.76c-1.34,4.58-2.01,7.47-2.01,8.67,0,.62.11,1.08.33,1.37.22.29.52.44.9.44.58,0,1.23-.27,1.94-.8s2.49-2.66,5.34-6.37l1.55,1.19c-2.72,4.3-5.51,7.47-8.36,9.5-1.89,1.31-3.72,1.96-5.47,1.96-1.34,0-2.39-.38-3.15-1.14-.76-.76-1.13-1.74-1.13-2.94s.22-2.72.67-4.64c.55-2.55,2.12-8.08,4.7-16.62-5.85,9.6-10.74,16.22-14.68,19.87-3.94,3.65-7.6,5.47-10.97,5.47-1.58,0-2.92-.55-4.03-1.65-1.1-1.1-1.65-2.49-1.65-4.18,0-2.58.76-6.54,2.27-11.87l4.49-15.95c1.1-3.82,1.65-6.19,1.65-7.12,0-.41-.15-.77-.44-1.06-.29-.29-.61-.44-.95-.44-.72,0-1.45.26-2.17.77-.72.52-2.36,2.43-4.9,5.73l-1.6-1.14c2.58-3.99,5.32-6.93,8.21-8.82,2.2-1.48,4.23-2.22,6.09-2.22,1.27,0,2.31.4,3.12,1.21.81.81,1.21,1.85,1.21,3.12,0,1.86-.69,5.18-2.06,9.96l-4.85,16.67c-1.34,4.54-2.01,7.41-2.01,8.62,0,.65.21,1.18.65,1.57.43.4,1.01.59,1.73.59,1.13,0,2.61-.57,4.44-1.7,1.82-1.14,4.26-3.66,7.3-7.56,3.05-3.9,5.56-7.57,7.54-10.99,1.98-3.42,4.08-8.87,6.32-16.33l1.13-3.92h7.84Z"/>
  <path class="cls-1" d="M229.22,487.3l-1.5,5.37h-8.62c.65,1.86.98,3.6.98,5.21,0,4.54-1.93,8.58-5.78,12.13-3.89,3.54-9.22,5.51-16,5.88-3.65,1.1-6.38,2.41-8.21,3.92-.69.55-1.03,1.12-1.03,1.7,0,.69.31,1.32.93,1.88s2.18,1.14,4.7,1.73l10.01,2.32c5.54,1.31,9.2,2.86,10.99,4.64,1.76,1.82,2.63,3.92,2.63,6.3,0,2.82-1.04,5.4-3.12,7.74-2.08,2.34-5.13,4.17-9.13,5.5-4.01,1.32-8.44,1.99-13.29,1.99-4.27,0-8.15-.51-11.66-1.52-3.51-1.02-6.02-2.38-7.53-4.1-1.51-1.72-2.27-3.49-2.27-5.32,0-1.48.49-3.02,1.47-4.62.98-1.6,2.21-2.92,3.69-3.95.93-.65,3.56-2.2,7.9-4.64-1.58-1.24-2.37-2.6-2.37-4.08,0-1.38.7-2.84,2.09-4.39,1.39-1.55,4.34-3.25,8.85-5.11-3.78-.72-6.79-2.3-9-4.75s-3.33-5.16-3.33-8.15c0-4.89,2.14-9.25,6.43-13.11s9.99-5.78,17.11-5.78c2.58,0,4.7.26,6.35.77,1.65.52,3.25,1.32,4.8,2.43h13.93ZM186.59,530.81c-2.79,1.27-4.89,2.91-6.32,4.9s-2.14,3.96-2.14,5.88c0,2.27,1.03,4.15,3.1,5.62,2.96,2.13,7.29,3.2,13,3.2,4.92,0,9.13-.83,12.62-2.5,3.49-1.67,5.24-3.83,5.24-6.48,0-1.34-.65-2.62-1.94-3.82-1.29-1.2-3.79-2.19-7.51-2.94-2.03-.41-7.38-1.7-16.05-3.87ZM211.31,495.41c0-2.75-.77-4.92-2.3-6.5-1.53-1.58-3.53-2.37-6.01-2.37-3.89,0-7.1,1.95-9.63,5.86-2.53,3.91-3.79,7.97-3.79,12.2,0,2.65.81,4.82,2.42,6.5,1.62,1.69,3.58,2.53,5.88,2.53,1.82,0,3.59-.5,5.29-1.5,1.7-1,3.14-2.37,4.31-4.13s2.1-3.99,2.79-6.71c.69-2.72,1.03-4.68,1.03-5.88Z"/>
  <path class="cls-1" d="M249.91,484.1l-6.71,23.27c2.99-5.47,5.54-9.58,7.64-12.33,3.27-4.26,6.45-7.36,9.55-9.29,1.82-1.1,3.73-1.65,5.73-1.65,1.72,0,3.15.55,4.28,1.65,1.13,1.1,1.7,2.51,1.7,4.23s-.4,3.89-1.19,6.61l-3.66,13.11c5.61-10.49,10.92-17.86,15.95-22.09,2.79-2.34,5.54-3.51,8.26-3.51,1.58,0,2.88.54,3.9,1.63,1.02,1.08,1.52,2.76,1.52,5.03,0,2-.31,4.11-.93,6.35l-5.68,20.07c-1.24,4.37-1.86,6.8-1.86,7.28s.15.89.46,1.24c.21.24.48.36.83.36s.95-.33,1.81-.98c1.96-1.51,3.8-3.51,5.52-5.99l1.7,1.08c-.86,1.38-2.38,3.27-4.57,5.68-2.19,2.41-4.05,4.04-5.6,4.9-1.55.86-2.98,1.29-4.28,1.29-1.2,0-2.21-.41-3.02-1.24s-1.21-1.84-1.21-3.05c0-1.65.71-4.97,2.12-9.96l4.7-16.57c1.07-3.82,1.63-5.93,1.7-6.35.1-.65.15-1.29.15-1.91,0-.86-.19-1.53-.57-2.01-.41-.48-.88-.72-1.39-.72-1.44,0-2.98.74-4.59,2.22-4.75,4.37-9.19,10.49-13.31,18.37-2.72,5.2-5.26,11.85-7.64,19.97h-7.79l8.82-31.22c.96-3.37,1.44-5.63,1.44-6.76,0-.93-.19-1.62-.57-2.06-.38-.45-.84-.67-1.39-.67-1.13,0-2.34.41-3.61,1.24-2.06,1.34-4.72,4.22-7.97,8.62-3.25,4.4-5.77,8.62-7.56,12.64-.86,1.89-2.91,7.97-6.14,18.22h-7.64l9.55-33.44,1.24-4.33c.24-.65.36-1.14.36-1.45,0-.76-.34-1.44-1.03-2.04-.69-.6-1.57-.9-2.63-.9-.45,0-1.69.21-3.72.62l-.46-1.91,17.8-3.25Z"/>
  <path class="cls-1" d="M315.92,511.35c-.24,1.72-.36,3.15-.36,4.28,0,3.06,1.08,5.67,3.25,7.82,2.17,2.15,4.8,3.23,7.9,3.23,2.48,0,4.86-.51,7.15-1.52,2.29-1.01,5.68-3.26,10.19-6.73l1.08,1.5c-8.15,8.09-15.93,12.13-23.33,12.13-5.02,0-8.81-1.58-11.35-4.75-2.55-3.17-3.82-6.66-3.82-10.48,0-5.13,1.58-10.37,4.75-15.74,3.17-5.37,7.14-9.54,11.92-12.51,4.78-2.98,9.7-4.46,14.76-4.46,3.65,0,6.35.74,8.1,2.22s2.63,3.23,2.63,5.26c0,2.86-1.13,5.59-3.41,8.21-2.99,3.41-7.4,6.16-13.21,8.26-3.85,1.41-9.27,2.51-16.26,3.3ZM316.28,508.82c5.09-.59,9.24-1.58,12.44-2.99,4.23-1.89,7.41-4.15,9.52-6.79,2.12-2.63,3.17-5.13,3.17-7.51,0-1.45-.46-2.61-1.37-3.51-.91-.89-2.21-1.34-3.9-1.34-3.51,0-7.23,1.87-11.17,5.6-3.94,3.73-6.84,9.25-8.7,16.54Z"/>
  <path class="cls-1" d="M373.56,484.1l-6.86,23.48c6.43-9.6,11.36-15.91,14.78-18.94,3.42-3.03,6.72-4.54,9.88-4.54,1.72,0,3.14.57,4.26,1.7,1.12,1.13,1.68,2.61,1.68,4.44,0,2.06-.5,4.82-1.5,8.26l-6.3,21.73c-.72,2.51-1.08,4.04-1.08,4.59,0,.48.14.89.41,1.21.27.33.57.49.88.49.41,0,.91-.22,1.5-.67,1.82-1.44,3.82-3.65,5.99-6.6l1.6.98c-3.2,4.58-6.23,7.84-9.08,9.81-2,1.34-3.78,2.01-5.37,2.01-1.27,0-2.29-.39-3.04-1.16-.76-.77-1.14-1.81-1.14-3.12,0-1.65.58-4.49,1.76-8.51l5.99-20.75c.76-2.58,1.14-4.59,1.14-6.04,0-.69-.22-1.25-.67-1.68-.45-.43-1-.65-1.65-.65-.96,0-2.11.41-3.46,1.24-2.55,1.55-5.2,4.1-7.95,7.66s-5.66,8.11-8.72,13.65c-1.62,2.92-2.96,6.12-4.03,9.6l-2.58,8.52h-7.74l9.39-32.31c1.1-3.89,1.65-6.23,1.65-7.02s-.3-1.42-.9-1.99c-.6-.57-1.35-.85-2.24-.85-.41,0-1.14.07-2.17.21l-1.96.31-.31-1.86,17.86-3.2Z"/>
  <path class="cls-1" d="M430.54,471.3l-4.03,14.04h8.1l-.88,3.25h-8.05l-8.88,30.45c-.96,3.27-1.44,5.39-1.44,6.35,0,.59.14,1.03.41,1.34.27.31.6.46.98.46.86,0,2-.6,3.41-1.81.83-.69,2.67-2.8,5.52-6.35l1.7,1.29c-3.17,4.61-6.16,7.86-8.98,9.75-1.93,1.31-3.87,1.96-5.83,1.96-1.51,0-2.75-.47-3.72-1.42s-1.44-2.16-1.44-3.64c0-1.86.55-4.7,1.65-8.52l8.62-29.88h-7.79l.52-2.01c3.78-1.03,6.93-2.57,9.44-4.62,2.51-2.05,5.32-5.6,8.41-10.66h2.27Z"/>
  <path class="cls-1" d="M456.75,484.1l-10.22,36.18c-.69,2.44-1.03,3.9-1.03,4.39,0,.55.16,1,.49,1.34.33.34.71.52,1.16.52.52,0,1.13-.27,1.86-.83,1.96-1.55,3.94-3.75,5.93-6.6l1.81,1.19c-2.34,3.58-5.09,6.59-8.26,9.03-2.34,1.82-4.58,2.74-6.71,2.74-1.41,0-2.56-.42-3.46-1.26-.9-.84-1.34-1.9-1.34-3.17s.43-3.39,1.29-6.35l6.71-23.12c1.1-3.78,1.65-6.16,1.65-7.12,0-.76-.27-1.38-.8-1.86s-1.26-.72-2.19-.72c-.76,0-2.32.19-4.7.57v-2.01l17.8-2.89ZM456.08,463.62c1.44,0,2.67.5,3.66,1.5,1,1,1.5,2.22,1.5,3.66s-.51,2.62-1.52,3.64c-1.02,1.02-2.23,1.52-3.64,1.52s-2.62-.51-3.64-1.52c-1.02-1.01-1.52-2.23-1.52-3.64s.5-2.67,1.5-3.66c1-1,2.22-1.5,3.66-1.5Z"/>
  <path class="cls-1" d="M485.14,484.1l-6.86,23.48c6.43-9.6,11.36-15.91,14.78-18.94,3.42-3.03,6.72-4.54,9.88-4.54,1.72,0,3.14.57,4.26,1.7,1.12,1.13,1.68,2.61,1.68,4.44,0,2.06-.5,4.82-1.5,8.26l-6.3,21.73c-.72,2.51-1.08,4.04-1.08,4.59,0,.48.14.89.41,1.21.27.33.57.49.88.49.41,0,.91-.22,1.5-.67,1.82-1.44,3.82-3.65,5.99-6.6l1.6.98c-3.2,4.58-6.23,7.84-9.08,9.81-2,1.34-3.78,2.01-5.37,2.01-1.27,0-2.29-.39-3.04-1.16-.76-.77-1.14-1.81-1.14-3.12,0-1.65.58-4.49,1.76-8.51l5.99-20.75c.76-2.58,1.14-4.59,1.14-6.04,0-.69-.22-1.25-.67-1.68-.45-.43-1-.65-1.65-.65-.96,0-2.11.41-3.46,1.24-2.55,1.55-5.2,4.1-7.95,7.66s-5.66,8.11-8.72,13.65c-1.62,2.92-2.96,6.12-4.03,9.6l-2.58,8.52h-7.74l9.39-32.31c1.1-3.89,1.65-6.23,1.65-7.02s-.3-1.42-.9-1.99c-.6-.57-1.35-.85-2.24-.85-.41,0-1.14.07-2.17.21l-1.96.31-.31-1.86,17.86-3.2Z"/>
  <path class="cls-1" d="M569.72,487.3l-1.5,5.37h-8.62c.65,1.86.98,3.6.98,5.21,0,4.54-1.93,8.58-5.78,12.13-3.89,3.54-9.22,5.51-16,5.88-3.65,1.1-6.38,2.41-8.21,3.92-.69.55-1.03,1.12-1.03,1.7,0,.69.31,1.32.93,1.88.62.57,2.18,1.14,4.7,1.73l10.01,2.32c5.54,1.31,9.2,2.86,10.99,4.64,1.75,1.82,2.63,3.92,2.63,6.3,0,2.82-1.04,5.4-3.12,7.74-2.08,2.34-5.13,4.17-9.13,5.5-4.01,1.32-8.44,1.99-13.29,1.99-4.27,0-8.15-.51-11.66-1.52-3.51-1.02-6.02-2.38-7.53-4.1-1.51-1.72-2.27-3.49-2.27-5.32,0-1.48.49-3.02,1.47-4.62.98-1.6,2.21-2.92,3.69-3.95.93-.65,3.56-2.2,7.9-4.64-1.58-1.24-2.37-2.6-2.37-4.08,0-1.38.7-2.84,2.09-4.39,1.39-1.55,4.34-3.25,8.85-5.11-3.78-.72-6.79-2.3-9.01-4.75s-3.33-5.16-3.33-8.15c0-4.89,2.14-9.25,6.43-13.11,4.28-3.85,9.99-5.78,17.11-5.78,2.58,0,4.7.26,6.35.77,1.65.52,3.25,1.32,4.8,2.43h13.93ZM527.09,530.81c-2.79,1.27-4.89,2.91-6.32,4.9s-2.14,3.96-2.14,5.88c0,2.27,1.03,4.15,3.1,5.62,2.96,2.13,7.29,3.2,13,3.2,4.92,0,9.13-.83,12.62-2.5,3.49-1.67,5.24-3.83,5.24-6.48,0-1.34-.64-2.62-1.94-3.82-1.29-1.2-3.79-2.19-7.51-2.94-2.03-.41-7.38-1.7-16.05-3.87ZM551.81,495.41c0-2.75-.77-4.92-2.3-6.5-1.53-1.58-3.53-2.37-6.01-2.37-3.89,0-7.1,1.95-9.62,5.86-2.53,3.91-3.79,7.97-3.79,12.2,0,2.65.81,4.82,2.43,6.5,1.62,1.69,3.58,2.53,5.88,2.53,1.82,0,3.59-.5,5.29-1.5,1.7-1,3.14-2.37,4.31-4.13,1.17-1.75,2.1-3.99,2.79-6.71.69-2.72,1.03-4.68,1.03-5.88Z"/>
  <path class="cls-1" d="M594.65,532.41l5.78-25.96h1.76c-.24,2.51-.36,4.59-.36,6.24,0,4.71,1.5,8.55,4.52,11.51,3.01,2.96,6.94,4.44,11.79,4.44,4.51,0,7.93-1.38,10.27-4.16,2.34-2.77,3.51-5.96,3.51-9.57,0-2.34-.53-4.47-1.6-6.4-1.62-2.86-5.93-7.88-12.95-15.07-3.41-3.44-5.59-6-6.55-7.69-1.58-2.79-2.37-5.71-2.37-8.77,0-4.88,1.82-9.06,5.47-12.54,3.65-3.47,8.33-5.21,14.04-5.21,1.93,0,3.75.19,5.47.57,1.07.21,3.01.89,5.83,2.06,2,.79,3.1,1.22,3.3,1.29.48.1,1.01.15,1.6.15,1,0,1.86-.26,2.58-.77.72-.52,1.56-1.62,2.53-3.3h1.96l-5.37,23.22h-1.76c.14-2.07.21-3.73.21-5.01,0-4.16-1.38-7.57-4.13-10.22-2.75-2.65-6.38-3.97-10.89-3.97-3.58,0-6.49,1.05-8.72,3.15-2.24,2.1-3.35,4.52-3.35,7.28,0,2.41.71,4.71,2.14,6.89,1.43,2.19,4.71,5.75,9.86,10.68,5.14,4.94,8.47,8.79,9.99,11.56,1.51,2.77,2.27,5.72,2.27,8.85,0,3.54-.94,6.98-2.81,10.29-1.88,3.32-4.57,5.89-8.08,7.72-3.51,1.82-7.35,2.73-11.51,2.73-2.06,0-3.99-.19-5.78-.57-1.79-.38-4.64-1.31-8.57-2.79-1.34-.52-2.46-.77-3.36-.77-2.03,0-3.61,1.38-4.75,4.13h-1.96Z"/>
  <path class="cls-1" d="M659.36,511.35c-.24,1.72-.36,3.15-.36,4.28,0,3.06,1.08,5.67,3.25,7.82,2.17,2.15,4.8,3.23,7.9,3.23,2.48,0,4.86-.51,7.15-1.52,2.29-1.01,5.68-3.26,10.19-6.73l1.08,1.5c-8.15,8.09-15.93,12.13-23.33,12.13-5.02,0-8.81-1.58-11.35-4.75-2.55-3.17-3.82-6.66-3.82-10.48,0-5.13,1.58-10.37,4.75-15.74,3.17-5.37,7.14-9.54,11.92-12.51,4.78-2.98,9.7-4.46,14.76-4.46,3.65,0,6.35.74,8.1,2.22,1.76,1.48,2.63,3.23,2.63,5.26,0,2.86-1.14,5.59-3.41,8.21-2.99,3.41-7.4,6.16-13.21,8.26-3.85,1.41-9.27,2.51-16.26,3.3ZM659.72,508.82c5.09-.59,9.24-1.58,12.44-2.99,4.23-1.89,7.41-4.15,9.52-6.79,2.11-2.63,3.17-5.13,3.17-7.51,0-1.45-.46-2.61-1.37-3.51-.91-.89-2.21-1.34-3.9-1.34-3.51,0-7.23,1.87-11.17,5.6-3.94,3.73-6.84,9.25-8.7,16.54Z"/>
  <path class="cls-1" d="M717.01,484.1l-6.86,23.48c6.43-9.6,11.36-15.91,14.79-18.94,3.42-3.03,6.72-4.54,9.88-4.54,1.72,0,3.14.57,4.26,1.7s1.68,2.61,1.68,4.44c0,2.06-.5,4.82-1.5,8.26l-6.3,21.73c-.72,2.51-1.08,4.04-1.08,4.59,0,.48.14.89.41,1.21.27.33.57.49.88.49.41,0,.91-.22,1.5-.67,1.82-1.44,3.82-3.65,5.99-6.6l1.6.98c-3.2,4.58-6.23,7.84-9.08,9.81-2,1.34-3.78,2.01-5.37,2.01-1.27,0-2.29-.39-3.05-1.16-.76-.77-1.13-1.81-1.13-3.12,0-1.65.58-4.49,1.75-8.51l5.99-20.75c.76-2.58,1.13-4.59,1.13-6.04,0-.69-.22-1.25-.67-1.68-.45-.43-1-.65-1.65-.65-.96,0-2.12.41-3.46,1.24-2.55,1.55-5.2,4.1-7.95,7.66-2.75,3.56-5.66,8.11-8.72,13.65-1.62,2.92-2.96,6.12-4.03,9.6l-2.58,8.52h-7.74l9.39-32.31c1.1-3.89,1.65-6.23,1.65-7.02s-.3-1.42-.9-1.99c-.6-.57-1.35-.85-2.24-.85-.41,0-1.13.07-2.17.21l-1.96.31-.31-1.86,17.86-3.2Z"/>
  <path class="cls-1" d="M773.98,471.3l-4.03,14.04h8.1l-.88,3.25h-8.05l-8.88,30.45c-.96,3.27-1.44,5.39-1.44,6.35,0,.59.14,1.03.41,1.34.27.31.6.46.98.46.86,0,2-.6,3.41-1.81.83-.69,2.67-2.8,5.52-6.35l1.7,1.29c-3.17,4.61-6.16,7.86-8.98,9.75-1.93,1.31-3.87,1.96-5.83,1.96-1.51,0-2.75-.47-3.72-1.42s-1.44-2.16-1.44-3.64c0-1.86.55-4.7,1.65-8.52l8.62-29.88h-7.79l.52-2.01c3.78-1.03,6.93-2.57,9.44-4.62s5.32-5.6,8.41-10.66h2.27Z"/>
  <path class="cls-1" d="M800.2,484.1l-10.22,36.18c-.69,2.44-1.03,3.9-1.03,4.39,0,.55.16,1,.49,1.34.33.34.71.52,1.16.52.52,0,1.14-.27,1.86-.83,1.96-1.55,3.94-3.75,5.93-6.6l1.81,1.19c-2.34,3.58-5.09,6.59-8.26,9.03-2.34,1.82-4.58,2.74-6.71,2.74-1.41,0-2.56-.42-3.46-1.26-.9-.84-1.34-1.9-1.34-3.17s.43-3.39,1.29-6.35l6.71-23.12c1.1-3.78,1.65-6.16,1.65-7.12,0-.76-.27-1.38-.8-1.86s-1.26-.72-2.19-.72c-.76,0-2.32.19-4.7.57v-2.01l17.8-2.89ZM799.52,463.62c1.45,0,2.67.5,3.66,1.5,1,1,1.5,2.22,1.5,3.66s-.51,2.62-1.52,3.64-2.23,1.52-3.64,1.52-2.62-.51-3.64-1.52c-1.02-1.01-1.52-2.23-1.52-3.64s.5-2.67,1.5-3.66,2.22-1.5,3.66-1.5Z"/>
  <path class="cls-1" d="M817.84,511.35c-.24,1.72-.36,3.15-.36,4.28,0,3.06,1.08,5.67,3.25,7.82,2.17,2.15,4.8,3.23,7.9,3.23,2.48,0,4.86-.51,7.15-1.52,2.29-1.01,5.68-3.26,10.19-6.73l1.08,1.5c-8.15,8.09-15.93,12.13-23.33,12.13-5.02,0-8.81-1.58-11.35-4.75-2.55-3.17-3.82-6.66-3.82-10.48,0-5.13,1.58-10.37,4.75-15.74,3.17-5.37,7.14-9.54,11.92-12.51,4.78-2.98,9.7-4.46,14.76-4.46,3.65,0,6.35.74,8.1,2.22,1.76,1.48,2.63,3.23,2.63,5.26,0,2.86-1.14,5.59-3.41,8.21-2.99,3.41-7.4,6.16-13.21,8.26-3.85,1.41-9.27,2.51-16.26,3.3ZM818.21,508.82c5.09-.59,9.24-1.58,12.44-2.99,4.23-1.89,7.41-4.15,9.52-6.79,2.11-2.63,3.17-5.13,3.17-7.51,0-1.45-.46-2.61-1.37-3.51-.91-.89-2.21-1.34-3.9-1.34-3.51,0-7.23,1.87-11.17,5.6-3.94,3.73-6.84,9.25-8.7,16.54Z"/>
  <path class="cls-1" d="M875.49,484.1l-6.86,23.48c6.43-9.6,11.36-15.91,14.79-18.94,3.42-3.03,6.72-4.54,9.88-4.54,1.72,0,3.14.57,4.26,1.7s1.68,2.61,1.68,4.44c0,2.06-.5,4.82-1.5,8.26l-6.3,21.73c-.72,2.51-1.08,4.04-1.08,4.59,0,.48.14.89.41,1.21.27.33.57.49.88.49.41,0,.91-.22,1.5-.67,1.82-1.44,3.82-3.65,5.99-6.6l1.6.98c-3.2,4.58-6.23,7.84-9.08,9.81-2,1.34-3.78,2.01-5.37,2.01-1.27,0-2.29-.39-3.05-1.16-.76-.77-1.13-1.81-1.13-3.12,0-1.65.58-4.49,1.75-8.51l5.99-20.75c.76-2.58,1.13-4.59,1.13-6.04,0-.69-.22-1.25-.67-1.68-.45-.43-1-.65-1.65-.65-.96,0-2.12.41-3.46,1.24-2.55,1.55-5.2,4.1-7.95,7.66-2.75,3.56-5.66,8.11-8.72,13.65-1.62,2.92-2.96,6.12-4.03,9.6l-2.58,8.52h-7.74l9.39-32.31c1.1-3.89,1.65-6.23,1.65-7.02s-.3-1.42-.9-1.99c-.6-.57-1.35-.85-2.24-.85-.41,0-1.13.07-2.17.21l-1.96.31-.31-1.86,17.86-3.2Z"/>
  <path class="cls-1" d="M932.46,471.3l-4.03,14.04h8.1l-.88,3.25h-8.05l-8.88,30.45c-.96,3.27-1.44,5.39-1.44,6.35,0,.59.14,1.03.41,1.34.27.31.6.46.98.46.86,0,2-.6,3.41-1.81.83-.69,2.67-2.8,5.52-6.35l1.7,1.29c-3.17,4.61-6.16,7.86-8.98,9.75-1.93,1.31-3.87,1.96-5.83,1.96-1.51,0-2.75-.47-3.72-1.42s-1.44-2.16-1.44-3.64c0-1.86.55-4.7,1.65-8.52l8.62-29.88h-7.79l.52-2.01c3.78-1.03,6.93-2.57,9.44-4.62s5.32-5.6,8.41-10.66h2.27Z"/>
  <path class="cls-1" d="M943.14,521.57c1.48,0,2.73.51,3.74,1.52,1.01,1.02,1.52,2.24,1.52,3.69s-.52,2.68-1.55,3.69c-1.03,1.02-2.27,1.52-3.72,1.52s-2.68-.51-3.69-1.52c-1.02-1.01-1.52-2.24-1.52-3.69s.51-2.67,1.52-3.69c1.01-1.02,2.24-1.52,3.69-1.52Z"/>
</svg>